<?xml version="1.0" standalone="no"?>
<!DOCTYPE svg PUBLIC "-//W3C//DTD SVG 20010904//EN"
 "http://www.w3.org/TR/2001/REC-SVG-20010904/DTD/svg10.dtd">
<svg version="1.0" xmlns="http://www.w3.org/2000/svg"
 width="576.000000pt" height="576.000000pt" viewBox="0 0 576.000000 576.000000"
 preserveAspectRatio="xMidYMid meet">
<metadata>
Created by potrace 1.11, written by Peter Selinger 2001-2013
</metadata>
<g transform="translate(0.000000,576.000000) scale(0.100000,-0.100000)"
fill="#000000" stroke="none">
<path d="M538 4805 c-2 -3 -42 -7 -87 -9 -90 -5 -167 -30 -239 -78 -51 -35
-132 -118 -132 -135 0 -7 -4 -13 -8 -13 -9 0 -46 -85 -61 -145 -8 -28 -10
-514 -8 -1565 2 -1462 3 -1527 21 -1575 69 -185 226 -306 416 -321 36 -3 71
-7 77 -9 7 -2 13 0 13 6 0 6 4 8 9 5 5 -4 45 -6 88 -6 83 1 105 1 126 -1 6 0
32 0 57 0 25 0 54 1 65 1 11 0 62 0 113 0 51 0 97 -2 103 -5 5 -4 9 -2 9 3 0
5 20 6 45 2 25 -4 45 -4 45 0 0 4 20 4 45 0 25 -4 45 -4 45 0 0 4 20 4 45 0
25 -4 45 -4 45 0 0 4 20 4 45 0 25 -4 48 -3 51 2 3 4 9 6 15 3 5 -3 48 -6 96
-5 97 1 117 0 136 -1 6 0 32 0 57 0 25 0 54 1 65 1 162 -3 276 0 286 6 4 2 10
0 13 -4 3 -5 26 -6 51 -2 25 4 45 4 45 0 0 -4 20 -4 45 0 25 4 45 4 45 1 0 -3
26 -5 57 -3 32 1 78 2 103 1 84 -1 105 -1 140 0 19 1 42 1 50 0 8 0 35 0 60 0
25 0 54 1 65 1 11 0 62 0 113 0 51 0 97 -2 103 -5 5 -4 9 -2 9 3 0 5 20 6 45
2 25 -4 45 -4 45 0 0 4 20 4 45 0 25 -4 45 -4 45 0 0 4 20 4 45 0 25 -4 45 -4
45 0 0 4 20 4 45 0 25 -4 48 -3 51 2 3 4 9 6 14 3 7 -5 35 0 110 19 141 36
285 193 317 346 13 63 20 177 10 186 -2 3 -1 20 3 38 4 19 4 39 0 46 -4 7 -4
26 -1 44 4 17 5 42 1 56 -3 14 -3 42 0 62 4 20 4 42 0 48 -4 6 -4 31 0 55 4
25 4 45 0 45 -4 0 -4 20 0 45 4 25 4 45 0 45 -4 0 -4 20 0 45 4 25 4 45 0 45
-4 0 -4 20 0 45 4 24 4 49 0 56 -4 6 -4 25 0 43 4 17 4 40 0 50 -3 11 -3 39 0
63 4 23 4 43 0 43 -4 0 -4 20 0 45 4 25 4 45 1 45 -3 0 -5 26 -3 57 4 94 4
132 -2 141 -2 4 -1 14 3 21 5 7 5 30 1 52 -4 22 -4 41 0 44 4 3 4 23 0 45 -4
22 -4 42 0 45 4 3 4 23 0 45 -4 22 -4 42 0 45 4 3 4 22 1 42 -4 21 -4 49 -1
63 4 14 4 39 1 55 -4 17 -4 55 -1 85 3 30 2 66 -1 80 -3 14 -3 34 1 45 4 11 4
34 0 51 -4 18 -4 37 0 44 4 7 4 27 0 45 -4 18 -4 38 0 45 4 7 4 26 1 44 -4 17
-4 45 -1 63 4 17 4 37 0 43 -4 7 -4 26 0 44 3 17 4 42 0 56 -4 14 -4 34 0 45
4 11 4 34 0 51 -4 18 -4 37 0 44 4 7 4 27 0 45 -4 18 -4 38 0 45 4 7 4 26 1
44 -4 17 -4 45 -1 63 4 17 4 37 -1 44 -4 7 -5 17 -3 21 8 13 1 210 -8 248 -28
111 -100 218 -188 280 -74 53 -147 79 -240 86 -36 3 -71 7 -77 9 -7 2 -13 1
-13 -3 0 -4 -46 -6 -102 -4 -164 4 -197 4 -207 -3 -5 -3 -12 -1 -15 3 -3 5
-26 6 -51 2 -25 -4 -45 -4 -45 0 0 4 -20 4 -45 0 -25 -4 -45 -4 -45 -1 0 5
-37 5 -130 1 -14 -1 -47 -1 -75 -1 -27 0 -57 0 -65 0 -8 0 -33 0 -55 1 -22 0
-66 -1 -98 -2 -31 -2 -57 0 -57 3 0 3 -20 3 -45 -1 -25 -4 -45 -4 -45 0 0 4
-20 4 -45 0 -24 -4 -50 -3 -57 1 -6 4 -15 6 -18 4 -8 -5 -37 -6 -170 -6 -94 0
-109 0 -132 2 -7 0 -33 0 -58 0 -25 0 -54 -1 -65 -1 -11 0 -62 0 -113 0 -51 0
-97 2 -103 5 -5 4 -9 2 -9 -3 0 -5 -20 -6 -45 -2 -25 4 -45 4 -45 0 0 -4 -20
-4 -45 0 -25 4 -45 4 -45 0 0 -4 -20 -4 -45 0 -25 4 -45 4 -45 0 0 -4 -20 -4
-45 0 -25 4 -48 3 -51 -2 -3 -4 -9 -6 -15 -3 -5 3 -48 6 -96 5 -97 -1 -117 0
-135 1 -7 0 -33 0 -58 0 -25 0 -54 -1 -65 -1 -11 0 -53 0 -93 0 -40 -1 -76 1
-81 4 -4 3 -10 3 -13 1z"/>
<path d="M5343 4466 c-32 -11 -248 -147 -298 -188 -5 -5 -84 -60 -175 -122
-91 -62 -208 -143 -260 -179 -52 -36 -151 -104 -220 -151 -207 -142 -235 -163
-232 -178 2 -7 3 -55 2 -105 0 -51 -1 -101 0 -110 0 -10 -1 -38 -1 -63 0 -25
0 -52 0 -60 2 -30 0 -84 -4 -88 -2 -2 1 -17 5 -33 5 -16 5 -31 1 -34 -5 -2 -5
-22 -1 -44 4 -22 4 -45 0 -51 -4 -6 -4 -31 0 -55 4 -25 4 -45 1 -45 -6 0 -6
-67 0 -162 2 -26 1 -50 -2 -53 -3 -3 -3 -26 1 -50 4 -25 4 -48 0 -50 -4 -3 -4
-23 0 -45 4 -22 4 -40 0 -40 -4 0 -4 -20 0 -45 4 -25 4 -45 0 -45 -4 0 -4 -20
0 -45 4 -25 3 -45 -2 -45 -5 0 -7 -4 -4 -9 4 -5 6 -54 6 -108 0 -161 0 -166
18 -180 9 -7 64 -45 122 -85 58 -39 107 -75 108 -80 2 -4 8 -8 13 -8 10 0 60
-34 93 -62 11 -10 23 -18 27 -18 4 0 14 -6 21 -13 7 -7 27 -22 45 -32 42 -27
147 -98 153 -105 14 -14 100 -70 108 -70 6 0 12 -4 14 -8 2 -5 32 -28 68 -52
36 -24 67 -46 70 -49 12 -14 70 -51 80 -51 5 0 10 -3 10 -7 0 -5 21 -21 48
-38 26 -16 49 -32 52 -35 9 -10 65 -45 90 -57 57 -27 144 -35 225 -21 72 14
169 95 207 176 l23 47 2 1360 2 1360 -26 55 c-31 66 -93 128 -158 159 -58 27
-171 35 -232 17z"/>
</g>
</svg>
