<?xml version="1.0" standalone="no"?>
<!DOCTYPE svg PUBLIC "-//W3C//DTD SVG 20010904//EN"
 "http://www.w3.org/TR/2001/REC-SVG-20010904/DTD/svg10.dtd">
<svg version="1.0" xmlns="http://www.w3.org/2000/svg"
 width="1024.000000pt" height="1024.000000pt" viewBox="0 0 1024.000000 1024.000000"
 preserveAspectRatio="xMidYMid meet">
<metadata>
Created by potrace 1.11, written by Peter Selinger 2001-2013
</metadata>
<g transform="translate(0.000000,1024.000000) scale(0.100000,-0.100000)"
fill="#000000" stroke="none">
<path d="M5030 10083 c0 -4 -44 -8 -98 -9 -121 -1 -257 -11 -392 -28 -19 -2
-57 -7 -85 -10 -51 -7 -90 -13 -90 -16 0 0 -18 -3 -40 -5 -43 -4 -85 -11 -125
-19 -14 -3 -36 -8 -50 -11 -112 -22 -109 -22 -112 -24 -2 -2 -14 -4 -28 -6
-53 -8 -271 -68 -405 -112 -77 -25 -146 -46 -152 -46 -7 0 -13 -4 -13 -9 0 -4
-7 -8 -15 -8 -33 0 -467 -184 -473 -201 -2 -5 -11 -9 -20 -10 -9 0 -48 -18
-87 -39 -38 -22 -101 -55 -138 -75 -132 -69 -399 -243 -549 -357 -42 -32 -82
-58 -88 -58 -6 0 -8 -4 -5 -10 3 -5 3 -10 -2 -10 -4 0 -20 -10 -35 -23 -15
-12 -41 -33 -59 -47 -35 -27 -61 -48 -143 -119 -76 -66 -406 -400 -441 -445
-17 -22 -41 -51 -54 -65 -13 -15 -40 -46 -60 -71 -20 -25 -39 -46 -43 -48 -5
-2 -8 -10 -8 -17 0 -7 -4 -15 -8 -17 -31 -12 -372 -514 -372 -547 0 -6 -4 -11
-10 -11 -5 0 -10 -4 -10 -9 0 -6 -15 -36 -34 -68 -19 -32 -35 -62 -36 -68 -1
-5 -6 -16 -12 -23 -18 -22 -127 -250 -185 -387 -30 -71 -60 -143 -68 -160 -7
-16 -16 -41 -20 -55 -3 -14 -10 -34 -15 -45 -10 -26 -52 -145 -55 -159 -1 -6
-5 -18 -8 -26 -8 -21 -28 -89 -31 -103 -2 -7 -8 -32 -15 -57 -7 -25 -15 -54
-18 -65 -8 -38 -11 -50 -13 -50 -2 0 -6 -18 -15 -64 -3 -19 -9 -39 -12 -45 -4
-6 -8 -22 -9 -36 -1 -14 -9 -58 -18 -98 -9 -40 -18 -89 -21 -110 -2 -20 -7
-48 -10 -62 -3 -14 -8 -45 -11 -70 -2 -25 -6 -52 -9 -60 -2 -8 -7 -46 -11 -85
-3 -38 -8 -78 -10 -88 -25 -134 -25 -808 1 -992 3 -22 8 -60 10 -85 4 -48 21
-169 29 -210 3 -14 7 -43 10 -65 3 -22 12 -74 21 -115 8 -41 16 -84 18 -95 2
-11 7 -27 10 -35 3 -8 13 -46 21 -85 9 -38 19 -81 22 -95 4 -14 7 -31 7 -37 0
-7 4 -13 9 -13 4 0 8 -11 8 -25 0 -13 4 -34 9 -47 5 -13 19 -54 31 -93 11 -38
24 -77 27 -85 3 -8 7 -19 9 -25 4 -14 26 -76 35 -100 4 -11 24 -63 45 -115 37
-95 64 -160 90 -214 8 -16 14 -35 14 -43 0 -7 4 -13 8 -13 5 0 15 -18 22 -40
7 -22 18 -40 23 -40 6 0 8 -3 5 -6 -6 -5 69 -155 116 -234 12 -19 28 -48 36
-65 8 -16 17 -32 20 -35 3 -3 29 -45 59 -95 29 -49 62 -99 72 -110 10 -11 18
-23 18 -28 0 -8 24 -43 58 -87 13 -15 23 -32 23 -38 0 -6 3 -12 8 -14 4 -1 40
-48 81 -103 41 -55 81 -106 88 -113 7 -8 26 -30 41 -50 116 -153 385 -427 615
-627 13 -11 112 -92 140 -115 11 -8 25 -21 32 -28 8 -6 16 -12 20 -12 4 0 13
-7 21 -15 9 -8 46 -36 82 -62 37 -26 73 -53 80 -60 7 -7 17 -13 22 -13 5 0 15
-6 22 -13 7 -7 38 -28 68 -47 30 -19 57 -37 60 -40 11 -14 163 -102 325 -190
44 -24 82 -46 85 -49 3 -3 14 -7 24 -9 10 -2 25 -10 33 -18 8 -8 18 -14 23
-14 4 0 50 -19 101 -43 52 -24 119 -54 149 -66 30 -13 67 -30 83 -38 15 -8 27
-11 27 -8 0 3 10 0 23 -7 12 -7 24 -13 27 -14 10 -2 45 -16 65 -25 11 -6 30
-11 43 -12 12 0 22 -5 22 -9 0 -4 3 -7 8 -6 4 0 14 -2 22 -5 18 -7 243 -76
268 -82 9 -3 79 -20 154 -39 120 -31 263 -62 323 -71 11 -2 38 -6 60 -9 129
-21 218 -33 296 -40 26 -2 52 -7 58 -10 6 -4 11 -2 11 4 0 6 5 8 13 3 14 -9
51 -12 210 -16 64 -2 120 -7 123 -10 4 -3 14 -2 24 3 10 5 20 7 23 3 9 -8 92
-8 105 1 6 3 13 2 17 -4 4 -6 11 -7 18 -3 6 4 61 8 122 9 60 1 137 5 170 9 33
3 87 8 120 11 69 7 79 8 160 18 70 9 100 14 100 16 0 1 9 3 20 4 84 11 177 27
250 45 22 5 51 12 65 15 41 8 61 13 150 36 47 12 90 23 95 25 6 1 17 5 25 8 8
4 26 9 40 11 14 3 25 5 25 6 0 1 7 3 15 5 23 6 112 36 135 45 11 4 56 20 100
36 44 15 91 32 105 37 14 6 27 11 30 12 3 1 17 7 33 13 39 17 82 34 82 32 0
-1 223 103 285 133 25 12 48 27 52 32 4 6 8 7 8 3 0 -4 39 15 86 42 47 28 88
50 90 50 3 0 29 15 58 33 28 17 61 37 72 44 112 69 339 223 405 277 15 11 39
30 54 41 16 11 33 25 39 30 6 6 34 28 61 50 28 22 57 46 66 55 10 8 38 33 64
55 54 46 385 373 430 425 308 357 540 699 720 1060 95 191 115 234 115 248 0
6 5 12 12 12 6 0 9 3 5 6 -3 4 1 21 10 38 9 17 18 36 19 41 1 6 26 73 56 150
29 77 64 172 76 210 47 148 67 220 66 232 -1 7 1 13 5 13 4 0 8 6 9 13 0 6 3
23 6 37 3 14 8 34 10 45 2 11 12 49 21 84 9 35 18 77 20 92 2 16 6 36 9 46 3
10 7 34 10 53 3 19 8 46 11 60 2 13 7 40 10 60 3 20 7 45 9 56 2 12 7 45 10
75 4 30 9 70 11 89 6 45 13 112 22 225 10 117 10 614 0 730 -10 115 -13 138
-32 297 -14 114 -78 453 -85 453 -1 0 -3 11 -5 25 -2 14 -8 43 -14 65 -7 22
-13 45 -15 50 -1 6 -8 36 -16 68 -7 31 -17 57 -22 57 -5 0 -7 4 -4 9 11 17
-128 409 -201 571 -28 61 -46 102 -48 110 -4 17 -152 302 -200 385 -32 55 -63
109 -69 120 -6 11 -13 22 -16 25 -3 3 -26 38 -50 78 -25 39 -48 72 -52 72 -5
0 -8 5 -8 11 0 9 -84 133 -117 174 -5 6 -31 39 -58 75 -27 36 -54 70 -60 76
-5 7 -21 26 -35 44 -14 17 -36 44 -50 60 -14 15 -45 52 -70 81 -62 73 -359
371 -444 444 -118 102 -116 101 -253 208 -62 48 -115 87 -118 87 -3 0 -11 5
-18 10 -48 40 -66 54 -99 72 -21 12 -38 25 -38 30 0 4 -5 8 -11 8 -6 0 -25 11
-43 25 -18 14 -38 25 -44 25 -7 0 -12 5 -12 10 0 6 -4 10 -10 10 -5 0 -36 17
-67 37 -32 21 -71 45 -88 54 -16 8 -64 34 -105 57 -132 73 -423 212 -444 212
-6 0 -16 4 -22 8 -15 14 -170 73 -344 131 -156 53 -422 125 -495 136 -11 1
-27 5 -35 8 -8 3 -31 9 -50 12 -63 10 -74 12 -135 24 -33 6 -80 13 -105 16
-25 3 -57 7 -71 10 -14 3 -50 8 -80 11 -30 3 -72 7 -94 9 -116 12 -200 17
-285 19 -53 1 -101 5 -107 9 -7 4 -14 3 -18 -2 -3 -6 -15 -7 -28 -2 -12 4 -33
5 -47 1 -14 -4 -30 -3 -37 2 -7 5 -14 5 -18 -2 -4 -7 -12 -7 -26 0 -10 6 -19
7 -19 3z m50 -962 c0 6 5 7 11 4 17 -11 59 -13 65 -3 3 4 10 5 16 2 5 -4 62
-8 127 -10 117 -3 189 -8 271 -19 186 -23 252 -34 350 -55 25 -6 54 -12 65
-13 11 -2 38 -9 60 -15 22 -6 51 -13 65 -15 14 -3 75 -19 135 -37 61 -17 115
-33 120 -33 6 -1 12 -4 15 -7 8 -8 144 -53 154 -50 5 1 12 -2 15 -7 3 -5 35
-20 71 -33 36 -13 69 -27 74 -32 6 -4 18 -8 28 -8 10 0 18 -4 18 -10 0 -5 7
-10 16 -10 18 0 266 -127 382 -196 45 -27 91 -53 100 -59 52 -29 152 -100 152
-107 0 -5 4 -7 8 -4 5 3 19 -5 33 -17 13 -12 38 -31 54 -41 42 -27 224 -174
258 -208 15 -15 30 -28 33 -28 4 0 17 -10 28 -22 12 -13 49 -48 82 -79 65 -62
179 -182 264 -278 30 -35 61 -69 68 -77 7 -8 11 -14 8 -14 -3 0 2 -8 12 -18 9
-9 39 -46 67 -82 27 -36 52 -67 55 -70 3 -3 11 -17 18 -31 8 -15 25 -38 38
-52 13 -14 24 -29 24 -33 0 -4 10 -21 23 -38 39 -52 142 -226 198 -336 30 -58
57 -106 62 -108 4 -2 7 -11 7 -19 0 -8 9 -32 19 -52 26 -50 71 -150 71 -159 0
-4 6 -19 14 -33 25 -49 137 -385 153 -459 10 -47 11 -55 13 -55 3 0 19 -69 26
-115 3 -19 8 -38 10 -41 2 -4 6 -24 9 -45 3 -22 8 -50 12 -64 4 -14 7 -34 9
-45 1 -11 4 -38 8 -60 3 -22 8 -62 12 -90 3 -27 7 -61 10 -75 26 -160 25 -708
-2 -900 -2 -19 -6 -53 -9 -75 -2 -22 -5 -40 -5 -40 -1 0 -4 -16 -6 -35 -5 -33
-29 -165 -41 -220 -3 -14 -6 -34 -8 -45 -1 -11 -3 -20 -4 -20 -2 0 -4 -6 -15
-50 -2 -11 -9 -40 -15 -65 -7 -25 -14 -56 -17 -70 -22 -103 -162 -476 -230
-612 -13 -27 -20 -48 -16 -48 4 0 3 -4 -3 -8 -5 -4 -37 -60 -70 -124 -33 -65
-63 -118 -67 -118 -4 0 -8 -5 -8 -11 0 -12 -122 -210 -162 -260 -15 -20 -28
-41 -28 -47 0 -6 -3 -12 -7 -14 -5 -1 -40 -46 -80 -98 -39 -52 -84 -109 -100
-126 -15 -17 -44 -51 -63 -75 -47 -58 -353 -365 -410 -410 -25 -20 -55 -45
-67 -55 -12 -11 -36 -30 -54 -44 -18 -14 -38 -31 -45 -38 -7 -6 -15 -12 -19
-12 -3 0 -16 -9 -28 -21 -21 -19 -334 -229 -386 -258 -13 -7 -40 -22 -60 -33
-94 -54 -282 -148 -296 -148 -8 0 -15 -4 -15 -10 0 -5 -7 -10 -15 -10 -8 0
-23 -4 -33 -10 -14 -8 -58 -27 -82 -35 -6 -2 -50 -19 -95 -38 -16 -6 -32 -12
-35 -13 -11 -2 -46 -16 -63 -25 -10 -5 -22 -7 -27 -4 -6 4 -10 2 -10 -2 0 -5
-8 -9 -17 -10 -10 -1 -31 -7 -48 -14 -16 -7 -34 -13 -40 -14 -5 -2 -35 -10
-66 -19 -31 -9 -67 -19 -80 -22 -33 -7 -41 -9 -64 -17 -11 -3 -31 -8 -45 -11
-14 -2 -56 -11 -95 -20 -38 -9 -87 -18 -107 -20 -21 -2 -41 -7 -45 -9 -4 -3
-33 -8 -63 -11 -30 -3 -66 -8 -80 -11 -14 -3 -47 -7 -75 -10 -27 -2 -50 -4
-50 -5 0 -3 -123 -11 -227 -14 -64 -2 -121 -7 -127 -10 -6 -4 -11 -2 -11 4 0
6 -4 9 -8 6 -17 -10 -214 -5 -372 9 -30 3 -82 7 -115 10 -33 2 -73 7 -88 11
-16 3 -38 7 -50 9 -164 21 -574 117 -631 147 -12 6 -23 11 -26 11 -3 0 -12 2
-20 4 -34 11 -66 22 -85 29 -11 4 -22 8 -25 8 -6 1 -67 25 -95 36 -248 104
-514 238 -617 311 -14 11 -29 19 -32 19 -6 0 -107 68 -174 117 -120 87 -197
147 -200 155 -2 4 -8 8 -14 8 -5 0 -15 6 -23 12 -7 7 -41 38 -76 68 -86 74
-352 341 -414 414 -28 33 -55 64 -60 70 -6 6 -35 43 -64 81 -30 39 -56 72 -60
75 -3 3 -10 12 -16 21 -16 25 -89 133 -98 144 -15 18 -99 149 -122 190 -12 22
-39 68 -59 103 -21 34 -42 76 -48 92 -5 17 -14 30 -19 30 -5 0 -9 7 -9 16 0 8
-10 34 -23 57 -50 90 -185 432 -217 547 -6 25 -16 53 -22 63 -5 11 -7 21 -4
24 3 3 -1 18 -10 34 -8 16 -12 29 -10 29 3 0 0 15 -6 33 -5 17 -11 41 -13 52
-2 11 -4 21 -5 23 -3 3 -5 9 -15 62 -5 25 -9 47 -10 50 -2 7 -15 71 -19 90 -1
8 -6 38 -10 65 -12 74 -14 90 -16 90 -1 0 -5 28 -15 125 -9 82 -15 164 -20
292 -2 69 -5 130 -6 135 -1 4 -1 10 0 13 7 17 5 100 -2 100 -5 0 -5 4 -2 10 3
5 8 47 11 92 10 201 26 348 50 478 5 25 14 78 19 115 2 11 4 20 5 20 2 0 4 9
6 20 1 11 5 31 9 45 3 14 8 37 11 52 3 14 13 56 24 92 10 36 16 66 13 66 -3 0
-1 6 5 13 6 7 13 25 16 41 5 27 22 85 33 116 19 49 54 147 57 160 6 21 77 191
115 273 17 37 31 72 31 76 0 5 3 11 8 13 4 2 23 34 42 73 19 38 59 110 88 159
28 49 52 90 52 93 0 2 5 9 11 16 5 7 29 41 52 77 22 36 43 67 47 70 3 3 10 12
15 21 50 82 196 264 327 410 91 100 127 136 250 251 96 89 110 102 213 184 55
43 102 82 103 87 2 4 9 7 15 7 6 0 20 8 31 19 32 29 185 131 196 131 5 0 10 3
10 8 0 4 26 22 58 40 31 18 73 42 92 54 51 31 326 170 387 196 78 33 107 45
113 46 3 1 11 5 18 10 7 4 16 5 19 2 3 -3 12 -1 20 5 12 11 126 55 163 64 8 2
29 9 45 16 17 7 33 12 37 11 4 -1 26 5 49 13 23 8 51 17 63 20 12 2 64 15 117
29 53 14 123 29 155 35 33 6 70 13 84 16 14 3 41 8 60 11 19 2 46 7 60 9 104
19 312 38 427 39 46 1 83 4 83 8 0 4 11 3 25 -2 17 -6 25 -6 25 1z"/>
<path d="M3380 7184 c-30 -8 -64 -16 -75 -19 -47 -11 -210 -101 -282 -155 -71
-53 -244 -220 -228 -220 3 0 -4 -10 -17 -23 -13 -12 -27 -29 -33 -38 -5 -8
-31 -47 -57 -87 -27 -39 -48 -75 -48 -80 0 -6 -3 -12 -7 -14 -10 -4 -96 -179
-96 -195 0 -7 -3 -13 -7 -13 -4 0 -7 -6 -8 -12 0 -7 -12 -46 -27 -87 -15 -41
-28 -81 -30 -90 -2 -9 -10 -43 -18 -76 -20 -77 -33 -153 -41 -235 -2 -25 -6
-49 -7 -55 -2 -5 0 -30 4 -55 19 -112 151 -163 252 -98 32 22 40 33 70 101 10
20 21 37 26 37 5 0 9 9 9 20 0 11 4 20 9 20 5 0 14 15 22 33 7 17 15 34 18 37
4 3 13 19 21 35 8 17 17 32 20 35 3 3 16 25 29 50 66 126 218 307 274 326 9 3
17 9 17 13 0 4 18 16 40 26 22 10 40 21 40 25 0 4 6 7 13 7 14 1 80 26 87 33
3 3 14 6 25 7 11 1 31 4 45 8 38 9 186 6 215 -5 14 -5 25 -7 25 -5 0 3 19 -2
43 -11 138 -52 256 -137 340 -247 12 -16 27 -34 32 -40 12 -14 45 -64 61 -92
6 -11 30 -52 53 -92 22 -40 41 -77 41 -83 0 -5 3 -10 8 -10 4 0 15 -17 25 -37
26 -56 79 -146 94 -161 7 -7 13 -17 13 -22 0 -9 45 -29 83 -36 40 -7 104 13
138 43 50 45 56 108 28 278 -7 39 -12 76 -12 83 0 6 -3 12 -6 12 -3 0 -7 10
-7 23 -3 42 -8 67 -14 67 -3 0 -6 8 -7 18 -1 9 -3 24 -6 32 -2 8 -8 29 -12 45
-20 75 -107 270 -162 366 -12 20 -27 47 -35 60 -7 13 -16 26 -19 29 -3 3 -19
26 -36 51 -140 205 -374 386 -593 459 -82 27 -249 34 -330 14z"/>
<path d="M6613 7190 c-18 -4 -33 -5 -33 -3 0 3 -7 0 -15 -7 -8 -7 -15 -10 -15
-6 0 13 -220 -82 -240 -103 -3 -4 -29 -22 -57 -41 -29 -19 -53 -38 -53 -42 0
-5 -5 -8 -10 -8 -15 0 -147 -132 -205 -205 -51 -63 -152 -215 -162 -243 -4
-10 -14 -28 -24 -42 -9 -14 -17 -28 -18 -32 -2 -9 -26 -68 -51 -123 -19 -43
-66 -185 -74 -225 -3 -14 -8 -36 -11 -50 -3 -14 -8 -36 -11 -50 -2 -14 -6 -30
-9 -37 -9 -25 -19 -131 -19 -200 -1 -77 12 -106 65 -145 32 -24 112 -31 153
-14 43 18 66 48 123 156 13 25 32 59 42 76 11 17 35 61 55 97 51 96 59 109 79
131 9 11 17 24 17 29 0 27 196 231 212 221 4 -3 8 0 8 6 0 5 16 18 35 27 19 9
35 20 35 25 0 4 7 8 15 8 8 0 24 5 35 10 57 29 51 27 140 46 51 11 189 4 242
-12 9 -3 25 -6 35 -8 33 -7 140 -61 187 -96 83 -60 266 -278 266 -316 0 -7 3
-14 8 -16 7 -3 39 -59 79 -138 10 -19 20 -37 23 -40 6 -6 54 -91 77 -136 8
-17 33 -43 55 -57 33 -21 49 -25 93 -22 100 6 150 65 147 174 -1 36 -3 80 -6
96 -3 17 -7 48 -11 70 -3 22 -13 69 -22 105 -9 36 -16 73 -15 83 0 9 -4 17 -9
17 -6 0 -7 5 -4 10 4 6 2 16 -3 23 -6 7 -11 15 -11 20 -2 23 -15 64 -25 76 -6
8 -10 16 -8 18 2 3 2 5 -3 21 -12 43 -136 293 -155 312 -14 14 -50 70 -50 79
0 5 -3 11 -7 13 -5 2 -26 26 -48 53 -63 78 -173 186 -250 243 -58 43 -219 133
-247 138 -5 1 -9 2 -10 4 -2 1 -10 3 -18 5 -8 2 -33 9 -55 15 -52 14 -221 20
-262 10z"/>
<path d="M2839 4486 c-2 -2 -24 -7 -49 -11 -64 -9 -107 -32 -156 -83 -55 -56
-74 -111 -69 -199 5 -79 14 -153 21 -165 3 -5 7 -21 10 -36 18 -111 91 -341
145 -457 18 -38 33 -73 33 -76 2 -12 42 -84 51 -91 6 -4 6 -8 1 -8 -5 0 -2 -8
6 -17 8 -10 32 -48 52 -85 20 -36 43 -72 51 -78 8 -7 15 -18 15 -24 0 -7 8
-21 18 -32 9 -10 37 -46 62 -79 24 -33 49 -65 55 -72 5 -6 30 -35 55 -63 60
-69 164 -173 224 -224 26 -22 60 -51 75 -64 14 -12 41 -32 59 -43 17 -11 32
-25 32 -30 0 -5 4 -9 9 -9 6 0 40 -21 78 -47 37 -25 91 -59 118 -75 52 -30
206 -111 215 -113 7 -2 61 -24 95 -40 120 -54 355 -121 522 -149 133 -22 187
-28 316 -31 65 -2 121 -6 124 -9 3 -2 15 -1 28 4 13 5 25 6 29 3 9 -9 400 0
451 11 11 2 47 7 80 11 33 3 83 11 110 16 28 6 61 12 75 15 14 3 43 10 65 16
22 5 49 12 60 14 36 7 240 76 250 85 5 5 15 9 22 9 7 0 61 23 119 50 58 28
110 50 115 50 5 0 9 3 9 8 0 4 15 14 32 21 31 14 90 50 114 70 6 5 20 11 31
15 11 4 28 15 38 26 10 11 24 20 32 20 7 0 13 3 13 8 0 4 17 18 38 32 20 14
39 27 42 30 3 3 25 21 49 40 25 19 54 44 66 55 95 89 168 162 215 214 30 35
60 68 65 74 6 7 31 39 55 72 25 33 47 62 51 65 17 15 138 221 188 320 60 120
138 318 156 397 2 10 11 45 20 78 24 94 25 98 31 135 3 19 7 42 10 51 14 50
13 158 -2 206 -29 92 -124 170 -214 177 -22 2 -43 6 -46 9 -4 4 -15 2 -25 -4
-13 -7 -19 -6 -19 1 0 8 -6 8 -20 0 -14 -8 -20 -8 -20 0 0 8 -6 8 -20 0 -14
-8 -20 -8 -20 0 0 8 -6 8 -20 0 -14 -8 -20 -8 -20 0 0 8 -6 8 -20 0 -14 -8
-20 -8 -20 0 0 8 -6 8 -20 0 -14 -8 -20 -8 -20 0 0 8 -6 8 -20 0 -14 -8 -20
-8 -20 0 0 8 -6 8 -20 0 -14 -8 -20 -8 -20 0 0 7 -6 8 -17 2 -18 -9 -50 -8
-60 2 -3 3 -14 1 -24 -5 -13 -6 -19 -6 -19 0 0 7 -9 7 -25 1 -16 -6 -25 -6
-25 1 0 6 -6 6 -18 0 -11 -6 -24 -6 -35 0 -11 7 -17 6 -17 -1 0 -7 -6 -8 -19
0 -14 7 -22 7 -26 0 -4 -7 -11 -7 -18 -2 -7 5 -21 6 -32 2 -11 -4 -30 -4 -42
1 -15 5 -23 5 -23 -2 0 -6 -7 -6 -20 1 -14 8 -20 8 -20 0 0 -8 -6 -8 -20 0
-14 8 -20 8 -20 0 0 -7 -6 -8 -19 0 -14 7 -22 7 -26 0 -4 -7 -11 -7 -18 -2 -7
5 -21 6 -32 2 -11 -4 -30 -4 -42 1 -15 5 -23 5 -23 -2 0 -6 -7 -6 -20 1 -14 8
-20 8 -20 0 0 -8 -6 -8 -20 0 -14 8 -20 8 -20 0 0 -7 -6 -8 -19 0 -14 7 -22 7
-26 0 -4 -7 -11 -7 -18 -2 -7 5 -21 6 -32 2 -11 -4 -30 -4 -42 1 -15 5 -23 5
-23 -2 0 -6 -7 -6 -20 1 -14 8 -20 8 -20 0 0 -8 -6 -8 -20 0 -14 8 -20 8 -20
0 0 -7 -6 -8 -19 0 -14 7 -22 7 -26 0 -4 -7 -11 -7 -18 -2 -7 5 -21 6 -32 2
-11 -4 -30 -4 -42 1 -15 5 -23 5 -23 -2 0 -6 -6 -6 -17 -1 -10 5 -27 6 -38 2
-11 -4 -30 -4 -42 1 -15 5 -23 5 -23 -2 0 -6 -7 -6 -20 1 -14 8 -20 8 -20 0 0
-8 -6 -8 -20 0 -14 8 -26 8 -40 0 -14 -8 -20 -8 -20 0 0 8 -6 8 -20 0 -14 -8
-20 -8 -20 0 0 8 -6 8 -20 0 -14 -8 -20 -8 -20 0 0 8 -6 8 -20 0 -14 -8 -20
-8 -20 0 0 8 -6 8 -20 0 -14 -8 -20 -8 -20 0 0 8 -6 8 -20 0 -14 -8 -20 -8
-20 0 0 8 -6 8 -20 0 -14 -8 -20 -8 -20 0 0 8 -6 8 -20 0 -14 -8 -20 -8 -20 0
0 8 -6 8 -20 0 -14 -8 -20 -8 -20 0 0 8 -6 8 -20 0 -14 -8 -20 -8 -20 0 0 8
-6 8 -20 0 -14 -8 -20 -8 -20 0 0 8 -6 8 -20 0 -14 -8 -20 -8 -20 0 0 8 -6 8
-20 0 -14 -8 -20 -8 -20 0 0 8 -6 8 -20 0 -14 -8 -20 -8 -20 0 0 8 -6 8 -20 0
-14 -8 -20 -8 -20 0 0 7 -6 8 -17 1 -22 -11 -34 -11 -54 -1 -8 5 -21 5 -29 0
-8 -5 -21 -5 -31 1 -12 6 -20 5 -24 -1 -5 -8 -11 -8 -20 0 -10 8 -15 8 -20 0
-5 -8 -10 -8 -20 0 -9 8 -15 8 -20 0 -4 -7 -12 -7 -25 0 -13 7 -21 7 -25 0 -4
-7 -11 -7 -18 -2 -7 5 -21 6 -32 2 -11 -4 -30 -4 -42 1 -15 5 -23 5 -23 -2 0
-6 -7 -6 -20 1 -14 8 -20 8 -20 0 0 -8 -6 -8 -20 0 -14 8 -20 8 -20 0 0 -7 -6
-8 -19 0 -14 7 -22 7 -26 0 -4 -7 -11 -7 -18 -2 -7 5 -21 6 -32 2 -11 -4 -30
-4 -42 1 -15 5 -23 5 -23 -2 0 -6 -7 -6 -20 1 -13 7 -20 7 -20 1 0 -7 -9 -7
-22 -2 -13 4 -35 5 -50 0 -16 -4 -28 -5 -28 -1 0 4 -11 7 -25 7 -14 0 -25 -4
-25 -8 0 -4 -9 -3 -19 3 -13 7 -22 7 -26 0 -4 -7 -13 -7 -26 0 -13 8 -19 7
-19 0 0 -8 -6 -8 -20 0 -14 8 -20 8 -20 0 0 -7 -6 -8 -19 0 -14 7 -22 7 -26 0
-4 -7 -11 -7 -18 -2 -7 5 -21 6 -32 2 -11 -4 -30 -4 -42 1 -15 5 -23 5 -23 -2
0 -6 -6 -6 -17 -1 -10 5 -27 6 -38 2 -11 -4 -30 -4 -42 1 -15 5 -23 5 -23 -2
0 -6 -7 -6 -19 1 -14 7 -22 7 -26 0 -5 -8 -11 -8 -20 0 -9 8 -15 8 -20 0 -4
-6 -12 -7 -24 -1 -10 6 -23 6 -31 1 -8 -5 -21 -5 -31 1 -12 6 -20 5 -24 -1 -5
-8 -11 -8 -20 0 -10 8 -15 8 -20 0 -5 -8 -10 -8 -20 0 -9 8 -15 8 -20 0 -4 -7
-12 -7 -25 0 -13 7 -21 7 -25 0 -4 -7 -11 -7 -18 -2 -7 5 -21 6 -32 2 -11 -4
-30 -4 -42 1 -15 5 -23 5 -23 -2 0 -6 -7 -6 -20 1 -14 8 -20 8 -20 0 0 -8 -6
-8 -20 0 -14 8 -20 8 -20 0 0 -7 -6 -8 -19 0 -14 7 -22 7 -26 0 -4 -7 -11 -7
-18 -2 -7 5 -21 6 -32 2 -11 -4 -30 -4 -42 1 -15 5 -23 5 -23 -2 0 -6 -7 -6
-20 1 -13 7 -20 7 -20 1 0 -7 -9 -7 -22 -2 -13 4 -35 5 -50 0 -16 -4 -28 -5
-28 -1 0 4 -11 7 -25 7 -14 0 -25 -4 -25 -8 0 -4 -9 -3 -19 3 -13 7 -22 7 -26
0 -4 -7 -13 -7 -26 0 -13 8 -19 7 -19 0 0 -7 -6 -8 -19 0 -14 7 -22 7 -26 0
-5 -7 -11 -8 -19 -1 -7 6 -17 6 -26 1 -9 -5 -17 -5 -20 1 -4 5 -8 7 -11 5z"/>
</g>
</svg>
