<?xml version="1.0" standalone="no"?>
<!DOCTYPE svg PUBLIC "-//W3C//DTD SVG 20010904//EN"
 "http://www.w3.org/TR/2001/REC-SVG-20010904/DTD/svg10.dtd">
<svg version="1.0" xmlns="http://www.w3.org/2000/svg"
 width="916.000000pt" height="916.000000pt" viewBox="0 0 916.000000 916.000000"
 preserveAspectRatio="xMidYMid meet">
<metadata>
Created by potrace 1.14, written by Peter Selinger 2001-2017
</metadata>
<g transform="translate(0.000000,916.000000) scale(0.100000,-0.100000)"
fill="#000000" stroke="none">
<path d="M5630 8963 c0 -37 -1 -118 -3 -180 -2 -125 -4 -122 79 -162 37 -18
72 -20 405 -26 l364 -7 50 33 c68 46 70 70 8 99 -177 84 -229 106 -408 171
-123 45 -388 123 -452 134 l-42 7 -1 -69z"/>
<path d="M4223 8713 c-7 -2 -13 -11 -13 -19 0 -7 -11 -16 -25 -20 -14 -3 -25
-10 -25 -14 0 -4 -10 -11 -22 -14 l-23 -6 24 -14 c20 -11 21 -14 7 -19 -10 -4
-15 -3 -11 3 10 16 -44 11 -71 -6 -13 -9 -27 -14 -30 -11 -4 3 -23 -3 -43 -14
-20 -11 -37 -15 -39 -9 -5 13 -22 13 -22 -1 0 -15 -26 -39 -34 -32 -3 4 -6 1
-6 -6 0 -8 -6 -11 -16 -7 -8 3 -13 2 -10 -3 5 -8 -41 -32 -67 -35 -4 -1 -12
-7 -16 -15 -5 -8 -11 -9 -15 -3 -11 18 -45 2 -41 -20 3 -16 2 -18 -10 -8 -11
9 -18 7 -31 -9 -10 -11 -21 -18 -26 -15 -7 5 -12 -10 -9 -29 1 -4 -9 -5 -22
-2 -16 4 -32 -2 -52 -20 -50 -43 -53 -45 -75 -45 -12 0 -24 -9 -29 -22 -5 -13
-12 -21 -17 -18 -5 3 -13 -5 -19 -17 -5 -13 -14 -23 -20 -23 -6 0 -16 -14 -22
-30 -6 -17 -15 -29 -20 -28 -4 1 -18 -3 -30 -10 -13 -7 -23 -10 -23 -7 0 3 -9
1 -21 -5 -12 -7 -18 -18 -15 -26 3 -8 -1 -14 -10 -14 -11 0 -14 5 -10 17 6 15
5 16 -11 1 -10 -8 -25 -18 -33 -21 -11 -4 -11 -6 3 -6 21 -1 17 -26 -4 -26 -8
0 -25 -8 -39 -18 -13 -9 -21 -17 -17 -17 4 0 0 -14 -9 -31 l-16 -31 -14 27
c-18 35 -18 34 6 28 11 -3 20 0 20 6 0 6 -14 11 -30 11 l-31 0 16 -30 c17 -33
12 -39 -11 -15 -17 16 -39 21 -30 6 4 -5 1 -11 -5 -13 -9 -3 -9 -9 0 -25 8
-15 8 -24 0 -28 -6 -4 -8 -14 -4 -22 6 -17 -15 -73 -27 -73 -5 0 -8 -6 -8 -13
0 -7 -21 -30 -47 -52 -27 -21 -55 -47 -63 -58 -28 -35 -55 -62 -75 -74 -11 -6
-19 -16 -17 -23 1 -6 -11 -27 -28 -46 -16 -19 -30 -40 -30 -47 0 -7 -14 -27
-30 -46 -17 -18 -30 -37 -30 -42 0 -5 -6 -6 -14 -3 -17 7 -44 -41 -71 -126
-10 -30 -25 -66 -35 -80 -31 -46 -90 -196 -96 -246 -4 -27 -14 -67 -24 -89
-30 -66 -80 -233 -80 -264 0 -15 -6 -46 -14 -67 -21 -61 -38 -197 -42 -339 -2
-71 -6 -141 -9 -155 -19 -86 -25 -665 -7 -704 28 -63 40 -94 47 -126 4 -19 19
-48 32 -64 18 -21 23 -38 21 -65 -2 -29 0 -36 15 -35 9 1 17 -2 17 -7 0 -5 12
-28 27 -52 59 -91 58 -74 28 -316 -2 -19 -16 -47 -31 -63 -15 -15 -23 -28 -18
-28 5 0 9 -16 8 -36 -1 -20 7 -53 19 -76 20 -37 21 -41 4 -53 -9 -6 -17 -21
-17 -32 0 -12 -11 -28 -25 -37 -14 -9 -23 -22 -19 -28 4 -5 1 -14 -7 -19 -11
-6 -10 -12 5 -28 11 -12 14 -21 8 -21 -21 0 -13 -31 14 -53 14 -12 37 -34 52
-49 30 -33 62 -37 62 -9 0 10 -7 24 -15 31 -15 13 -22 41 -28 127 -2 29 -1 50
3 48 5 -3 11 7 14 21 5 19 12 25 26 21 13 -3 17 -1 13 9 -3 8 -1 14 5 14 5 0
12 -6 15 -14 6 -15 -11 -36 -29 -36 -20 0 -21 -31 -2 -94 10 -33 20 -80 21
-105 1 -28 10 -54 22 -68 11 -14 20 -41 21 -65 1 -22 6 -43 12 -47 13 -9 32
-47 32 -66 0 -9 10 -25 22 -35 21 -16 22 -22 12 -59 -9 -33 -9 -43 2 -49 8 -4
15 -20 16 -34 1 -15 6 -24 12 -21 5 4 7 -6 3 -25 -4 -17 -2 -34 3 -37 6 -3 10
-15 10 -26 0 -11 7 -19 16 -19 13 0 14 3 4 15 -10 12 -9 16 3 21 8 3 17 14 20
25 3 10 1 17 -4 13 -11 -7 -11 7 0 25 5 7 13 11 18 8 10 -7 1 64 -12 96 -13
30 -27 19 -23 -18 2 -19 1 -32 -4 -27 -4 4 -9 23 -10 42 -2 19 -7 38 -13 42
-6 5 -5 8 3 8 6 0 12 7 12 15 0 8 -4 15 -10 15 -13 0 -13 40 0 60 8 13 10 13
10 -2 0 -11 5 -15 15 -12 11 5 15 -1 16 -22 0 -30 17 -79 18 -56 1 7 6 10 13
6 7 -5 9 -1 6 13 -4 16 -1 19 18 15 13 -2 24 -8 24 -13 0 -5 -4 -8 -9 -6 -5 1
-9 -1 -10 -5 -3 -21 0 -28 10 -28 5 0 7 6 3 13 -6 9 -4 9 7 0 20 -19 31 -15
19 6 -12 23 -14 53 -2 34 4 -6 7 6 7 27 0 21 -3 33 -7 27 -4 -7 -8 2 -8 21 0
17 -4 32 -10 32 -5 0 -10 -7 -10 -17 0 -14 -2 -14 -20 2 -19 18 -20 17 -20 -3
0 -11 7 -22 17 -24 9 -2 17 -13 18 -25 2 -26 -21 -20 -28 9 -3 11 -10 17 -16
14 -6 -4 -4 14 4 41 21 70 20 83 -11 83 -14 0 -23 -4 -20 -8 2 -4 1 -14 -5
-22 -7 -13 -9 -12 -10 3 -3 30 -4 35 -11 43 -5 4 -8 23 -8 41 0 23 -4 32 -11
27 -8 -4 -9 0 -4 15 4 14 3 21 -6 19 -6 -2 -15 9 -20 25 -4 15 -3 27 2 27 5 0
9 5 9 11 0 5 -4 7 -10 4 -5 -3 -10 1 -10 10 0 9 -4 13 -10 10 -5 -3 -10 -2
-10 4 0 5 5 13 10 16 6 4 8 11 4 16 -3 5 -9 7 -13 5 -4 -3 -7 11 -6 30 1 41
-18 40 -25 -2 -5 -24 -7 -26 -13 -11 -4 11 -4 24 -1 29 4 6 -1 17 -11 25 -11
7 -14 13 -8 13 6 0 10 11 9 25 -1 31 -12 32 -22 3 -6 -19 -7 -19 -16 -5 -5 9
-8 23 -7 29 4 31 -2 47 -15 42 -10 -4 -16 10 -22 58 -5 35 -7 70 -6 78 2 8 5
40 8 70 2 30 15 79 29 108 14 29 25 59 25 66 0 8 6 26 14 41 8 15 12 34 9 41
-3 8 1 24 9 37 17 26 31 127 18 127 -5 0 -9 24 -8 53 2 105 -3 187 -13 182 -5
-4 -6 3 -1 17 10 26 8 68 -6 145 -5 29 -5 50 0 47 4 -3 8 -1 8 5 0 5 3 17 6
25 5 12 2 15 -11 10 -15 -6 -16 0 -12 52 5 66 15 97 28 88 5 -3 7 -10 4 -15
-4 -5 -1 -17 4 -26 9 -15 10 -11 11 18 0 20 6 41 13 48 9 7 14 37 14 93 0 46
-2 73 -4 61 -6 -33 -21 -28 -16 5 4 21 2 24 -6 12 -9 -13 -11 -13 -11 3 0 9 5
17 10 17 6 0 10 5 10 11 0 7 8 18 18 26 9 8 11 11 3 7 -11 -5 -13 -3 -8 9 3
10 2 17 -3 17 -5 0 -8 13 -7 29 1 18 7 27 14 24 9 -4 12 4 11 20 -2 21 -5 24
-17 14 -12 -10 -13 -8 -6 13 4 14 10 31 12 38 3 6 -2 12 -11 12 -9 0 -16 5
-16 11 0 5 5 7 10 4 14 -9 12 17 -5 58 -14 35 -8 81 13 97 4 3 13 16 19 30 11
25 12 25 12 -9 1 -48 13 -31 18 26 3 34 1 44 -6 33 -5 -8 -13 -11 -16 -8 -4 4
3 15 14 25 12 9 21 22 21 27 0 5 -3 6 -7 3 -3 -4 -12 1 -18 10 -10 13 -10 20
1 31 16 15 19 46 4 37 -18 -11 -11 55 11 98 21 42 30 79 29 127 0 20 2 22 10
10 8 -13 10 -12 10 3 0 11 6 31 14 45 7 15 21 54 31 87 31 109 54 145 155 242
14 14 36 35 50 49 14 13 33 24 43 24 11 0 17 6 14 13 -6 19 85 79 155 101 11
3 15 11 12 21 -4 10 0 15 11 15 10 0 33 10 52 21 28 18 45 21 89 16 29 -3 56
-2 59 3 3 5 13 9 23 8 9 0 51 7 93 16 42 8 121 17 175 19 55 2 110 10 123 17
16 8 41 10 77 5 33 -4 61 -2 74 5 17 9 27 8 47 -5 14 -10 23 -12 19 -7 -7 12
29 26 43 18 5 -3 23 2 41 10 23 12 35 13 43 5 6 -6 20 -11 31 -11 17 0 18 -2
7 -9 -9 -6 3 -8 34 -5 36 4 53 0 68 -13 11 -10 17 -12 12 -4 -6 11 -2 13 21 7
28 -7 28 -7 9 8 -11 8 -15 16 -8 16 6 0 19 -8 29 -17 13 -13 19 -14 22 -5 5
15 27 15 52 0 16 -10 23 -9 42 9 15 13 33 20 51 18 15 -2 27 0 27 5 0 4 14 10
32 14 22 4 37 1 49 -10 11 -10 25 -14 35 -10 10 4 21 1 26 -6 7 -9 11 -9 14
-2 5 11 165 9 194 -3 8 -3 24 -5 34 -4 22 3 94 -17 113 -31 6 -5 14 -5 18 2 3
6 11 7 17 4 6 -4 28 -8 50 -10 22 -1 56 -14 77 -28 43 -30 60 -34 40 -9 -13
15 -12 16 6 8 11 -4 40 -15 65 -24 25 -9 56 -24 69 -33 13 -9 49 -27 80 -39
31 -13 65 -32 76 -42 11 -10 36 -28 55 -40 55 -34 90 -69 90 -89 0 -20 20 -26
20 -5 1 6 9 2 20 -11 11 -13 16 -30 13 -40 -3 -9 -3 -14 2 -10 10 9 40 -24 57
-63 7 -16 19 -29 26 -29 8 0 10 -5 6 -12 -5 -7 -2 -9 8 -6 10 4 23 -9 41 -46
15 -29 27 -56 27 -60 0 -3 10 -23 23 -44 29 -48 49 -92 39 -91 -20 3 -18 -4 9
-33 23 -25 26 -34 14 -36 -13 -3 -13 -7 1 -33 15 -30 15 -30 -7 -19 -17 10
-20 10 -13 -2 5 -7 9 -20 9 -28 0 -8 5 -14 12 -13 7 2 10 -4 7 -12 -4 -8 -11
-15 -18 -15 -6 0 -4 -6 6 -13 9 -7 19 -28 22 -47 10 -55 11 -57 25 -74 9 -11
10 -16 2 -16 -17 0 -13 -14 9 -38 11 -12 20 -35 20 -51 0 -16 4 -32 8 -35 4
-2 9 -19 10 -38 l2 -33 -20 30 c-23 35 -26 29 -5 -11 8 -16 12 -37 9 -48 -4
-13 -3 -16 6 -11 9 5 11 4 6 -4 -9 -14 12 -71 25 -71 5 0 13 -15 18 -32 5 -20
9 -25 10 -13 0 11 -6 31 -14 45 -22 38 -18 48 8 16 12 -16 32 -39 45 -52 22
-23 30 -40 13 -30 -5 4 -7 -3 -4 -15 4 -16 8 -17 14 -7 7 10 9 9 9 -4 0 -9 6
-19 13 -22 8 -4 7 -5 -3 -5 -36 3 -39 0 -24 -30 8 -16 21 -34 29 -41 8 -7 15
-18 15 -25 0 -7 8 -30 19 -52 36 -75 44 -117 45 -254 0 -75 -1 -136 -4 -134
-6 4 -9 -18 -9 -75 -1 -66 0 -74 14 -105 8 -17 14 -49 13 -72 0 -36 52 -176
72 -193 4 -3 13 -23 22 -45 9 -22 19 -39 24 -37 15 6 20 -29 16 -131 -5 -158
-4 -180 13 -190 8 -4 15 -18 15 -29 l0 -21 -23 21 c-29 27 -46 29 -23 3 10
-11 16 -26 13 -33 -4 -8 -6 -7 -6 5 -1 9 -5 17 -11 17 -14 0 -13 -12 3 -35 7
-11 13 -29 12 -40 -5 -63 -3 -62 -30 -30 -13 17 -24 36 -25 44 0 10 -3 11 -13
2 -8 -6 -12 -24 -10 -43 4 -30 3 -31 -8 -13 -31 49 -40 49 -34 -2 12 -107 9
-133 -12 -133 -25 -1 -57 -26 -44 -35 6 -3 11 -11 11 -17 0 -7 -4 -7 -13 1
-21 16 -26 4 -16 -37 11 -48 10 -73 -2 -44 -5 13 -14 20 -19 17 -8 -5 -6 -15
4 -31 22 -33 21 -47 -3 -35 -10 6 -24 25 -30 42 -8 22 -15 30 -26 25 -9 -3
-13 -2 -10 3 3 5 0 13 -6 16 -15 10 0 -87 15 -97 6 -5 2 -8 -11 -8 -25 0 -31
-15 -10 -23 9 -4 9 -7 0 -18 -15 -15 -13 -16 -36 35 -10 21 -21 36 -24 32 -4
-3 -1 -12 5 -18 14 -14 16 -78 3 -78 -13 0 -51 50 -51 67 0 8 5 11 10 8 6 -3
10 -2 10 4 0 5 -4 13 -10 16 -5 3 -10 1 -10 -4 0 -18 -48 -12 -60 7 -9 14 -11
14 -7 1 3 -9 -1 -28 -8 -42 -7 -14 -16 -45 -19 -69 -3 -24 -10 -44 -15 -46 -5
-2 -7 -11 -4 -21 2 -10 -1 -38 -8 -62 -7 -24 -12 -47 -11 -51 1 -5 -3 -8 -8
-8 -6 0 -6 -7 1 -18 13 -20 5 -87 -11 -97 -5 -3 -7 0 -4 8 3 8 -3 20 -12 28
-16 13 -17 12 -12 -8 6 -22 -7 -42 -27 -41 -5 1 -15 -10 -22 -23 -9 -17 -13
-19 -17 -9 -2 8 -9 30 -15 48 -6 19 -6 32 0 32 5 0 9 -3 9 -7 0 -5 11 -8 23
-8 22 0 23 3 16 35 -12 50 -11 60 6 60 8 0 15 5 15 10 0 6 -4 10 -10 10 -14 0
-13 27 2 36 7 4 8 3 4 -4 -5 -8 -1 -10 10 -5 15 5 13 10 -11 31 -31 26 -42 80
-19 89 10 4 11 10 3 24 -5 11 -15 16 -21 13 -7 -4 -8 -3 -4 4 4 6 13 9 21 5
11 -4 13 -1 9 11 -4 9 -1 16 6 16 9 0 7 7 -5 20 -21 24 -35 18 -27 -12 4 -15
2 -19 -7 -13 -8 4 -10 17 -6 32 5 23 4 25 -19 19 -13 -3 -26 -2 -28 3 -2 5
-16 11 -33 13 -33 3 -54 23 -55 51 0 9 -8 17 -17 17 -12 0 -18 9 -20 26 -2 34
-23 47 -44 28 -11 -10 -19 -11 -23 -5 -4 5 1 14 10 19 11 6 13 11 5 16 -6 4
-11 15 -11 24 0 11 -9 18 -25 18 -16 1 -22 -2 -18 -9 4 -6 -9 -2 -28 10 -18
12 -34 26 -34 32 0 21 -16 24 -22 3 -9 -35 -30 -26 -51 22 -10 22 -16 26 -24
18 -17 -17 -24 -15 -24 8 0 15 7 20 26 20 l25 1 -27 17 c-16 9 -28 22 -28 28
0 7 -6 12 -12 11 -37 -1 -48 4 -48 24 0 11 -5 17 -10 14 -6 -4 -7 -11 -4 -17
5 -7 1 -9 -9 -5 -10 3 -17 3 -17 -2 0 -13 -71 4 -115 27 -22 12 -45 22 -52 22
-7 0 -20 16 -29 35 -17 36 -48 52 -82 43 -10 -3 -23 1 -30 9 -7 7 -17 11 -23
8 -11 -7 -8 -64 3 -71 5 -3 5 -10 2 -16 -4 -6 -2 -13 3 -17 16 -9 70 -132 78
-174 15 -81 -30 -140 -118 -151 -93 -12 -245 -21 -241 -14 7 10 -39 6 -53 -5
-9 -6 -13 -6 -13 1 0 6 -6 9 -13 6 -8 -3 -20 2 -27 11 -10 12 -16 13 -27 3
-11 -9 -13 -8 -11 3 2 8 -3 13 -12 10 -8 -2 -20 -4 -27 -5 -7 -1 -16 -5 -19
-9 -20 -20 -54 1 -58 36 -1 4 -6 11 -13 15 -8 5 -9 13 -3 22 17 26 11 31 -12
11 -12 -12 -30 -23 -40 -27 -10 -3 -18 -9 -18 -14 0 -16 -32 -41 -46 -36 -20
8 -17 -4 8 -31 31 -33 17 -38 -34 -12 -36 19 -60 23 -153 24 -88 1 -115 4
-137 19 -16 10 -28 22 -28 27 0 5 -5 8 -12 6 -6 -1 -14 6 -16 17 -2 11 0 16 6
12 6 -4 10 10 10 37 0 28 16 78 46 150 25 59 46 111 46 116 0 16 -28 20 -40 5
-7 -8 -18 -14 -24 -14 -6 0 -30 -14 -54 -30 -24 -16 -50 -26 -58 -23 -8 3 -14
0 -14 -7 0 -6 -4 -9 -9 -6 -5 4 -12 0 -14 -6 -3 -7 -6 -2 -7 12 -1 24 -2 25
-12 4 -9 -19 -49 -46 -71 -48 -4 -1 -16 -16 -27 -34 -11 -17 -27 -32 -35 -32
-9 0 -18 -6 -21 -14 -3 -8 -12 -12 -21 -9 -9 3 -25 -6 -41 -24 -15 -16 -42
-38 -59 -48 -18 -10 -30 -22 -27 -27 3 -4 -2 -11 -10 -14 -9 -3 -16 -14 -16
-24 0 -10 -12 -25 -26 -35 -14 -9 -23 -19 -21 -22 8 -7 -25 -43 -35 -37 -4 3
-4 -6 2 -21 9 -24 8 -25 -12 -14 -17 9 -24 8 -33 -5 -7 -9 -17 -16 -24 -16 -6
0 -19 -8 -30 -19 -10 -10 -25 -21 -32 -23 -12 -4 -12 -7 0 -21 11 -14 11 -17
0 -17 -10 -1 -9 -4 4 -14 16 -12 16 -16 3 -48 -8 -19 -12 -39 -7 -44 4 -5 -1
-24 -10 -42 -16 -31 -18 -32 -24 -13 -3 12 -11 21 -18 21 -8 0 -8 -3 1 -12 7
-7 12 -20 12 -30 0 -20 15 -24 25 -8 10 17 26 0 20 -20 -3 -10 0 -29 7 -41 10
-17 10 -23 1 -26 -15 -5 -18 -33 -3 -33 5 0 6 -7 3 -17 -4 -11 -3 -14 5 -9 11
7 17 -10 13 -40 -1 -7 5 -14 14 -18 8 -3 15 -12 15 -20 0 -9 9 -20 19 -26 11
-5 25 -26 31 -46 7 -19 14 -33 17 -30 11 11 42 -31 45 -63 4 -44 23 -51 37
-14 9 25 10 24 4 -12 -3 -22 -9 -44 -13 -50 -14 -20 -19 -59 -9 -77 6 -12 6
-18 -1 -18 -5 0 -10 8 -10 17 0 15 -2 14 -16 -3 -8 -10 -12 -13 -9 -6 11 22
13 62 2 62 -5 0 -7 -9 -4 -19 3 -12 -4 -28 -19 -42 l-24 -22 0 30 c0 31 -29
70 -31 42 -1 -8 -5 0 -9 16 l-8 30 -1 -31 c-1 -34 -31 -45 -31 -11 0 16 -3 17
-15 7 -22 -18 -20 8 3 33 16 19 16 19 -5 13 -15 -5 -23 -3 -23 4 0 6 -4 8 -10
5 -5 -3 -10 1 -10 9 0 8 5 18 10 21 6 3 10 12 10 18 0 7 -9 1 -19 -12 -20 -26
-36 -23 -44 8 -3 14 1 22 14 26 11 4 17 11 13 16 -3 6 -12 8 -19 5 -14 -5 -35
28 -38 61 0 12 -4 20 -8 17 -9 -5 -19 21 -19 50 0 13 -9 51 -21 85 -11 35 -21
83 -22 107 -1 24 -5 44 -8 44 -3 0 -15 18 -28 40 -12 22 -19 40 -14 40 4 0 -5
12 -20 26 -16 14 -26 32 -23 40 3 8 1 14 -5 14 -6 0 -7 4 -4 10 3 5 4 10 2 10
-8 0 -46 -78 -41 -83 2 -2 0 -17 -6 -33 -6 -16 -12 -51 -12 -79 -1 -27 -3 -40
-6 -27 -5 30 -27 28 -27 -2 0 -13 4 -22 9 -18 5 3 6 -2 3 -12 -4 -10 -7 -35
-7 -57 0 -21 -4 -39 -10 -39 -5 0 -7 8 -3 18 3 9 2 14 -2 9 -5 -4 -16 0 -26 9
-11 10 -19 12 -24 5 -3 -6 1 -11 9 -11 9 0 16 -4 16 -10 0 -5 9 -19 20 -30 12
-12 18 -25 15 -30 -4 -6 -3 -15 0 -20 9 -15 35 7 29 24 -3 7 0 23 5 37 8 19
10 9 10 -48 1 -112 28 -90 41 32 0 6 5 2 11 -8 6 -10 8 -25 5 -33 -4 -11 0
-14 17 -12 18 2 23 -2 25 -26 2 -17 7 -25 11 -18 4 7 7 -7 6 -31 -1 -23 3 -45
9 -49 7 -5 8 -11 1 -15 -6 -5 -11 -21 -12 -38 -2 -23 -1 -26 5 -11 6 15 11 16
16 7 5 -7 3 -18 -3 -24 -15 -15 -14 -27 4 -27 14 0 20 -12 16 -34 -1 -4 3 -14
10 -22 6 -7 8 -18 5 -23 -4 -5 -2 -12 4 -16 5 -3 10 -18 10 -33 0 -21 -2 -24
-10 -12 -7 11 -10 5 -11 -25 -1 -22 -3 -32 -6 -22 -7 25 -20 21 -27 -9 -7 -25
-8 -25 -25 -9 -11 9 -22 12 -25 7 -3 -5 1 -15 9 -22 16 -13 21 -40 8 -40 -17
1 -40 47 -47 90 -9 60 -22 79 -23 35 -1 -19 4 -35 9 -35 6 0 7 -7 4 -16 -3 -9
3 -28 14 -44 11 -16 18 -35 15 -42 -3 -8 1 -21 10 -28 20 -16 19 -27 -2 -33
-15 -4 -15 -5 -2 -6 11 -1 16 -11 17 -33 0 -17 5 -34 10 -37 5 -3 12 -19 16
-34 4 -15 11 -25 16 -22 6 3 10 0 10 -7 1 -8 7 -5 16 7 8 11 19 19 24 18 5 -2
7 4 4 11 -3 8 -12 12 -20 9 -7 -3 -17 2 -20 11 -3 9 -10 13 -15 10 -12 -7 2
29 14 38 7 4 5 15 -5 30 -8 12 -17 36 -21 53 l-5 30 19 -24 c17 -21 19 -21 21
-5 0 11 0 27 0 37 -1 11 2 15 9 11 6 -3 9 -15 6 -25 -3 -10 0 -20 7 -22 8 -3
8 -10 -1 -26 -7 -11 -12 -31 -12 -43 1 -20 2 -20 8 4 5 23 8 25 23 14 10 -7
21 -28 24 -47 4 -26 3 -30 -5 -19 -9 12 -11 8 -11 -17 0 -21 6 -33 18 -37 9
-3 2 -4 -15 -2 -35 3 -39 -3 -22 -37 9 -20 9 -21 -4 -4 -13 15 -15 15 -20 3
-4 -9 0 -19 8 -24 8 -4 26 -23 40 -42 14 -19 31 -35 38 -35 7 -1 11 -6 9 -13
-2 -12 24 -46 77 -101 13 -13 31 -37 41 -53 10 -16 22 -29 26 -29 5 0 31 -20
57 -45 28 -27 54 -43 63 -40 8 3 14 -1 14 -9 0 -8 5 -15 10 -15 6 0 10 -7 10
-15 0 -9 6 -12 15 -9 10 4 15 0 15 -11 0 -10 5 -13 12 -9 8 5 9 2 4 -12 -4
-10 -4 -15 0 -12 3 4 13 1 21 -7 8 -8 24 -15 35 -15 16 0 19 -5 16 -24 -3 -14
-1 -31 3 -38 7 -10 9 -10 9 0 0 17 47 15 53 -2 3 -7 0 -19 -6 -25 -9 -9 -8
-11 6 -6 10 5 17 2 17 -5 0 -7 7 -10 16 -6 8 3 12 2 9 -4 -3 -6 1 -10 9 -10 9
0 16 -3 16 -8 0 -4 14 -13 30 -20 17 -8 30 -19 30 -26 0 -6 10 -12 21 -13 30
-3 34 -10 18 -30 -13 -17 -13 -17 5 -3 15 12 20 12 23 2 3 -6 9 -10 14 -6 5 3
9 1 9 -4 0 -12 50 -45 66 -45 7 0 10 -6 7 -14 -3 -7 0 -13 7 -13 8 0 9 -10 5
-30 -5 -24 -3 -30 10 -30 9 0 14 -4 11 -9 -4 -5 0 -12 6 -14 10 -4 10 -6 1 -6
-30 -2 -10 -20 30 -26 35 -7 39 -9 21 -16 -12 -4 -25 -12 -28 -18 -4 -6 -21
-8 -39 -5 -30 5 -31 5 -13 -10 22 -17 22 -17 -14 -33 -24 -11 -24 -12 -2 -12
12 -1 22 -6 22 -12 0 -8 4 -8 14 0 12 10 17 8 27 -11 7 -13 12 -24 11 -25 -8
-12 1 -32 16 -36 16 -4 16 -5 -1 -6 -10 0 -27 4 -38 9 -13 7 -19 7 -19 0 0 -5
5 -10 11 -10 5 0 8 -4 5 -9 -3 -5 14 -18 39 -30 47 -22 56 -37 30 -48 -9 -3
-22 2 -30 13 -16 21 -20 8 -5 -16 5 -8 25 -15 47 -15 31 0 38 -4 38 -20 1 -11
6 -19 13 -17 7 1 12 -2 12 -8 0 -5 17 -21 37 -35 35 -23 36 -25 13 -25 l-25
-1 29 -25 c23 -20 31 -23 38 -12 7 9 8 6 5 -9 -3 -15 0 -23 8 -23 8 0 17 -5
21 -11 5 -9 -1 -10 -20 -5 -32 8 -33 0 -3 -25 14 -12 17 -18 8 -19 -11 0 -11
-4 2 -18 24 -26 21 -35 -8 -30 -30 6 -32 -3 -7 -25 24 -22 32 -21 32 1 0 11 8
26 18 35 20 18 62 23 62 7 0 -5 7 -7 15 -4 8 4 15 3 15 0 0 -4 -13 -12 -30
-17 -16 -6 -28 -15 -25 -20 3 -4 12 -6 20 -2 8 3 15 0 15 -6 0 -6 5 -11 10
-11 6 0 9 3 9 8 -4 26 1 34 15 22 14 -11 12 -41 -2 -38 -4 1 -22 -1 -41 -5
-26 -6 -31 -10 -22 -20 13 -16 5 -27 -21 -27 -10 0 -18 -7 -18 -16 0 -8 4 -12
10 -9 6 3 10 -1 10 -9 0 -10 6 -13 15 -10 8 4 12 11 8 17 -4 6 0 8 10 4 10 -3
17 -2 17 2 0 5 -6 11 -12 14 -10 3 -10 7 -1 17 14 15 67 5 58 -11 -4 -5 -2
-16 4 -23 6 -7 10 -20 8 -27 -2 -8 -2 -11 0 -6 7 11 31 9 35 -3 2 -6 18 -12
37 -15 19 -2 38 -10 42 -17 5 -7 9 -9 9 -4 0 5 7 3 15 -4 18 -15 20 -13 30 19
5 16 4 21 -4 17 -13 -9 -14 4 -1 24 7 12 11 10 19 -10 6 -17 10 -19 10 -8 1
22 19 32 34 20 14 -12 40 3 50 28 5 13 5 13 6 0 0 -8 -11 -26 -26 -40 -23 -22
-24 -25 -8 -28 10 -2 20 0 24 5 3 4 15 13 26 19 11 7 19 20 18 30 -1 11 0 13
3 7 7 -15 34 -17 34 -3 0 7 6 7 18 1 9 -5 32 -16 50 -23 17 -7 32 -16 32 -20
0 -5 7 -8 15 -8 8 0 15 -4 15 -10 0 -16 17 -12 24 6 7 18 -19 50 -29 34 -9
-14 -25 -12 -25 3 1 12 34 57 43 57 3 0 3 -10 0 -21 -4 -16 -2 -20 8 -17 8 3
14 11 14 19 0 7 8 15 18 17 9 2 17 -2 17 -9 0 -6 -8 -18 -17 -25 -16 -12 -16
-15 -3 -24 8 -5 11 -10 5 -10 -5 0 -2 -5 7 -11 15 -8 16 -13 6 -29 -7 -10 -16
-16 -20 -14 -4 3 -8 1 -8 -5 0 -42 72 13 78 59 2 16 -2 30 -7 30 -6 0 -11 7
-11 15 0 9 9 15 23 15 17 0 19 2 7 10 -9 5 -19 5 -27 -2 -15 -12 -29 14 -17
33 4 8 3 9 -4 5 -7 -4 -12 -2 -12 4 0 6 -4 8 -10 5 -14 -8 -13 -1 5 42 16 38
23 37 68 -12 10 -11 15 -13 11 -5 -7 13 -6 13 11 0 10 -8 21 -14 24 -12 3 2 7
-1 9 -7 2 -6 -4 -14 -12 -17 -14 -5 -14 -9 -4 -22 7 -8 14 -25 15 -36 0 -12 4
-32 8 -46 5 -19 4 -22 -4 -10 -8 11 -11 11 -11 2 0 -24 42 -30 76 -10 21 12
35 15 39 8 3 -5 -1 -10 -9 -10 -8 0 -18 -10 -22 -22 -7 -24 -19 -37 -52 -56
-29 -16 -32 -16 -32 10 l0 21 -20 -23 -20 -23 -8 24 -9 24 -8 -25 c-5 -16 -4
-25 4 -28 8 -3 4 -14 -13 -31 -15 -16 -27 -40 -28 -61 -3 -35 -3 -35 38 -33
32 1 49 10 82 42 44 43 66 51 76 26 4 -11 -1 -15 -19 -15 -14 0 -25 -5 -25
-11 0 -6 9 -9 20 -6 11 3 23 1 26 -4 4 -6 11 -6 19 1 7 6 19 9 26 8 8 -2 14 4
14 12 0 8 -6 14 -13 12 -6 -1 -12 1 -13 5 0 5 -3 17 -6 28 -16 64 -15 77 5 96
12 10 25 19 31 19 12 0 23 29 15 41 -3 5 -16 9 -30 9 -15 0 -24 6 -24 15 0 8
-5 15 -10 15 -14 0 -60 -49 -60 -64 0 -6 -7 0 -16 12 -11 16 -12 27 -5 39 8
14 10 14 11 4 0 -12 3 -12 12 -3 7 7 13 31 13 53 1 35 -3 42 -23 50 -19 7 -22
12 -13 23 8 10 8 16 -4 26 -8 7 -15 17 -15 22 0 6 6 6 14 -1 11 -9 18 -8 30 5
9 9 23 14 30 11 8 -3 16 3 19 15 3 11 3 17 0 14 -7 -7 -43 23 -43 35 0 9 20 7
38 -4 7 -5 12 -3 12 5 0 10 2 10 9 -1 7 -11 9 -11 13 0 3 8 -4 19 -16 26 -21
12 -21 12 -1 14 11 1 26 1 33 0 6 -1 12 2 12 7 0 6 7 12 15 16 12 4 14 0 9
-18 -4 -16 0 -27 11 -33 21 -12 9 -42 -20 -49 -13 -3 -26 -13 -30 -22 -5 -13
-8 -14 -14 -3 -7 11 -13 8 -26 -13 -14 -20 -15 -29 -6 -40 9 -11 9 -15 -2 -18
-11 -2 -12 -9 -5 -28 l9 -25 24 30 c13 16 27 26 31 22 4 -4 -2 -16 -14 -28
-13 -11 -20 -24 -17 -29 3 -6 16 -1 27 10 38 35 54 24 49 -33 -1 -9 3 -17 8
-17 6 0 11 7 11 15 0 8 7 15 15 15 9 0 19 10 24 22 20 50 24 64 22 75 -1 7 3
13 9 13 5 0 10 10 10 21 0 17 5 20 21 16 17 -5 24 1 32 24 6 16 15 29 20 29 5
0 7 -7 3 -15 -8 -22 1 -18 14 5 9 17 6 20 -27 29 -22 6 -41 7 -48 1 -6 -5 -20
-7 -30 -6 -11 2 -26 -1 -32 -7 -9 -6 -13 -6 -13 3 0 8 -3 11 -6 7 -20 -19 -53
66 -34 88 8 10 4 14 -17 18 -29 5 -87 -12 -65 -20 14 -5 17 -43 3 -43 -5 0
-12 7 -15 16 -3 8 -10 12 -16 9 -6 -3 -10 4 -10 18 0 13 -3 27 -7 31 -15 15
-8 48 14 65 12 11 23 23 23 28 0 4 9 14 20 21 12 7 18 17 14 23 -3 6 0 10 7 8
30 -4 36 2 31 26 -3 18 2 31 19 46 24 21 36 59 19 59 -6 0 -10 7 -10 15 0 8 6
14 13 13 6 -2 11 3 9 10 -1 6 5 12 13 12 8 0 15 9 15 20 0 11 5 20 10 20 6 0
10 4 10 9 0 19 -62 -12 -70 -35 -11 -27 -50 -34 -50 -9 0 8 5 15 11 15 5 0 7
-4 4 -10 -3 -6 1 -7 10 -4 12 5 13 10 6 17 -6 6 -11 18 -10 26 0 11 2 12 6 4
6 -16 33 -17 33 -2 0 5 5 7 12 3 7 -5 9 -2 5 8 -3 9 1 25 9 36 12 18 12 21 -2
24 -14 3 -13 6 5 22 21 19 21 19 21 -2 0 -23 15 -38 25 -22 3 5 -2 22 -12 37
-14 22 -14 25 -2 16 13 -11 15 -8 11 19 -3 21 -1 29 7 24 7 -4 9 -2 5 7 -3 8
3 21 13 28 11 8 23 23 27 34 6 16 9 17 17 5 8 -13 10 -13 19 0 5 8 10 20 10
25 0 6 -5 3 -10 -5 -8 -13 -10 -12 -10 3 0 9 6 17 13 17 22 1 57 37 51 54 -3
9 -1 16 5 16 6 0 11 -5 11 -11 0 -5 5 -7 10 -4 6 4 8 15 5 26 -4 13 -2 19 9
19 9 0 16 -4 16 -10 0 -5 5 -10 11 -10 8 0 8 5 -1 15 -10 12 -10 18 0 30 11
13 15 13 21 3 7 -10 9 -10 9 0 0 6 9 21 20 32 11 11 20 16 20 10 0 -5 9 -1 20
10 11 11 20 27 20 35 0 9 6 15 13 14 26 -3 37 2 37 16 0 8 4 15 10 15 16 0 60
42 60 57 0 8 5 11 10 8 6 -3 10 -1 10 6 0 8 5 7 18 -2 15 -13 16 -12 3 4 -8 9
-12 19 -10 20 2 1 12 9 22 16 14 11 20 11 32 1 12 -10 15 -10 15 3 0 8 -5 17
-12 19 -21 7 19 78 43 78 12 0 23 8 26 20 3 11 10 20 15 20 12 0 45 40 71 84
l18 31 -6 -55 c-16 -159 -35 -422 -46 -637 l-13 -241 30 -38 c16 -21 41 -60
56 -88 l27 -51 1 35 c1 43 8 240 15 415 2 72 7 261 10 421 3 160 10 306 15
325 13 44 13 46 -3 24 -13 -16 -14 -15 -12 14 1 18 7 36 13 40 6 3 12 27 13
51 3 53 8 70 21 70 5 0 6 -9 3 -20 -8 -26 14 -58 26 -38 5 7 6 22 3 33 -5 22
48 159 58 149 3 -3 6 5 7 18 2 48 6 66 13 62 8 -5 50 78 47 92 -1 5 3 22 9 37
7 16 12 37 12 47 0 10 7 20 15 24 8 3 15 9 14 13 -1 4 0 13 1 18 1 6 3 15 5
20 1 6 3 18 3 27 1 12 8 16 20 12 16 -5 16 -5 0 9 -21 16 -24 32 -5 21 8 -6 8
-3 -2 9 -16 20 -8 47 14 47 10 0 15 10 16 28 0 15 2 36 5 47 2 11 6 47 8 81 2
33 8 70 15 82 6 11 11 33 11 47 0 20 4 26 15 21 11 -4 15 1 15 18 0 14 6 27
13 29 10 4 10 6 0 6 -8 1 -13 16 -13 40 l0 38 65 6 c57 5 70 11 98 38 l32 32
-1 129 c0 73 -6 138 -12 151 -36 72 -41 94 -24 111 16 16 16 17 1 11 -12 -4
-31 9 -63 42 -37 39 -48 45 -55 33 -11 -17 -15 -10 -25 48 -5 27 -3 32 14 32
18 0 17 3 -10 28 -25 23 -30 35 -31 83 -2 56 15 119 32 119 5 0 9 6 9 13 0 6
14 21 30 32 17 11 33 30 37 43 5 19 10 22 34 17 21 -5 29 -3 29 8 0 7 10 19
23 26 13 7 29 21 35 32 14 22 16 23 -53 -21 -65 -40 -70 -14 -21 114 14 37 28
96 31 130 7 84 15 117 26 110 12 -7 11 8 -1 42 -6 15 -13 63 -15 108 -3 45 -9
104 -15 131 -5 28 -9 59 -9 70 0 11 -5 47 -12 80 -7 33 -13 79 -13 103 -1 23
-4 42 -8 42 -5 0 -8 21 -8 46 0 25 -5 54 -10 64 -6 10 -12 47 -15 82 -7 83
-10 101 -18 114 -15 24 -37 105 -32 114 3 6 1 10 -5 10 -7 0 -9 8 -5 21 5 15
4 19 -4 14 -8 -5 -10 1 -5 21 5 20 4 25 -6 19 -9 -6 -11 2 -6 31 6 36 -3 67
-18 65 -3 -1 -6 1 -6 4 0 3 0 10 0 16 0 5 5 7 10 4 15 -9 12 37 -4 58 -7 9
-18 17 -24 17 -16 0 -42 41 -42 67 0 13 -6 23 -14 23 -8 0 -17 11 -20 25 -4
14 -13 25 -20 25 -8 0 -17 11 -20 25 -4 14 -11 25 -16 25 -6 0 -10 10 -10 23
0 13 -11 38 -25 57 -14 19 -25 40 -25 47 0 7 -4 13 -10 13 -5 0 -10 7 -10 15
0 9 -20 36 -45 62 -25 25 -45 52 -45 59 0 36 -53 114 -116 171 -132 119 -154
143 -154 168 0 13 -7 54 -15 92 -14 63 -27 100 -61 180 -8 17 -14 38 -14 47 0
9 -4 16 -10 16 -5 0 -10 7 -10 15 0 8 -11 17 -25 21 -14 3 -29 11 -33 18 -13
21 -250 87 -283 78 -4 -1 -23 14 -42 33 -20 19 -41 35 -47 35 -6 0 -9 4 -5 9
19 31 -140 102 -218 98 -25 -2 -36 1 -33 9 5 12 -23 44 -38 44 -4 0 -14 7 -22
15 -9 8 -24 15 -34 15 -10 0 -22 5 -25 10 -3 6 -15 10 -25 10 -10 0 -25 6 -32
13 -38 39 -89 47 -126 21 -17 -11 -34 -14 -60 -10 -20 4 -46 8 -57 10 -28 4
-65 28 -65 43 0 19 -19 26 -35 13 -12 -10 -27 -6 -75 16 -33 15 -60 31 -60 35
0 4 -9 5 -20 2 -11 -3 -20 -12 -20 -19 0 -16 -6 -16 -35 -4 -11 5 -14 9 -7 9
10 1 9 5 -3 18 -14 13 -18 14 -25 2 -7 -11 -10 -11 -15 2 -4 10 -19 16 -42 17
-20 1 -46 8 -59 17 -13 8 -25 15 -26 14 -2 0 -9 -3 -15 -6z m424 -135 c-3 -8
-6 -5 -6 6 -1 11 2 17 5 13 3 -3 4 -12 1 -19z m-630 -24 c-3 -3 -12 -4 -19 -1
-8 3 -5 6 6 6 11 1 17 -2 13 -5z m1248 -164 c3 -5 1 -10 -4 -10 -6 0 -11 5
-11 10 0 6 2 10 4 10 3 0 8 -4 11 -10z m113 -76 c-4 -3 -16 0 -28 6 -18 10
-20 14 -9 21 15 9 48 -15 37 -27z m492 -377 c0 -5 -4 -5 -10 -2 -5 3 -10 14
-10 23 0 15 2 15 10 2 5 -8 10 -19 10 -23z m240 -1268 c0 -18 -10 -8 -25 24
l-16 32 21 -24 c11 -13 20 -27 20 -32z m-3423 -161 c-3 -8 -6 -5 -6 6 -1 11 2
17 5 13 3 -3 4 -12 1 -19z m-112 -274 c-12 -24 -15 -25 -15 -8 0 11 5 25 12
32 18 18 20 8 3 -24z m15 -585 c0 -6 -4 -7 -10 -4 -5 3 -10 11 -10 16 0 6 5 7
10 4 6 -3 10 -11 10 -16z m3955 -929 c3 -5 2 -10 -4 -10 -5 0 -13 5 -16 10 -3
6 -2 10 4 10 5 0 13 -4 16 -10z m-18 -42 c-3 -8 -6 -5 -6 6 -1 11 2 17 5 13 3
-3 4 -12 1 -19z m-3970 -170 c-3 -7 -5 -2 -5 12 0 14 2 19 5 13 2 -7 2 -19 0
-25z m4017 -98 c-9 -21 -25 36 -16 58 4 12 8 9 14 -13 4 -17 5 -37 2 -45z
m-77 -57 c-14 -45 -18 -36 -10 22 4 35 8 44 13 30 4 -11 2 -34 -3 -52z m-50
-15 c-3 -7 -5 -2 -5 12 0 14 2 19 5 13 2 -7 2 -19 0 -25z m-3828 -5 c0 -25 -1
-26 -9 -8 -12 27 -12 35 0 35 6 0 10 -12 9 -27z m1311 -28 c6 3 7 -1 4 -9 -4
-10 1 -18 10 -22 15 -6 15 -8 1 -24 -8 -9 -13 -19 -10 -21 8 -9 75 3 69 12 -3
5 -1 9 4 9 5 0 12 -11 14 -25 6 -28 5 -28 -38 -16 -18 5 -37 5 -47 0 -11 -7
-17 -4 -22 11 -3 11 -14 20 -24 20 -9 0 -22 5 -29 12 -9 9 -12 8 -12 -5 0 -9
6 -17 14 -17 16 0 28 -24 18 -35 -4 -4 -7 -12 -7 -18 -1 -7 -7 -11 -14 -9 -7
1 -19 -3 -27 -9 -11 -9 -14 -8 -14 6 0 10 -8 24 -17 32 -10 8 -12 12 -5 8 7
-4 19 -1 27 5 12 10 12 14 -2 28 -15 16 -15 17 1 20 11 3 15 9 11 20 -3 8 0
19 7 23 10 7 10 11 0 21 -10 10 -15 10 -22 -2 -7 -11 -10 -11 -10 -2 0 7 6 14
13 16 6 2 26 8 42 13 27 8 31 7 43 -19 7 -16 17 -26 22 -23z m2538 -6 c-1 -22
-3 -27 -10 -16 -4 8 -5 22 -2 31 9 24 13 19 12 -15z m-75 -16 c3 -15 3 -33 0
-40 -9 -23 -33 6 -33 38 0 37 26 39 33 2z m-3745 -48 c-3 -3 -9 2 -12 12 -6
14 -5 15 5 6 7 -7 10 -15 7 -18z m3822 13 c0 -4 -4 -8 -9 -8 -6 0 -12 4 -15 8
-3 5 1 9 9 9 8 0 15 -4 15 -9z m-1890 -48 c-14 -11 -34 -20 -45 -19 -13 0 -6
6 20 19 51 24 56 24 25 0z m1790 5 c0 6 5 2 11 -8 13 -23 2 -37 -12 -17 -8 11
-9 8 -3 -10 9 -34 12 -36 34 -22 17 10 20 10 20 -4 0 -8 -4 -12 -10 -9 -14 9
-13 -8 2 -23 7 -7 10 -12 8 -13 -3 0 -15 -2 -27 -5 -21 -3 -39 19 -28 36 3 4
-2 13 -10 20 -10 9 -15 9 -15 1 0 -6 -4 -11 -9 -11 -6 0 -3 12 5 28 7 15 14
34 14 42 0 13 1 13 10 0 5 -8 10 -10 10 -5z m53 -16 c4 -16 3 -18 -9 -8 -16
13 -19 29 -5 29 5 0 11 -9 14 -21z m-638 1 c3 -5 1 -10 -4 -10 -6 0 -11 5 -11
10 0 6 2 10 4 10 3 0 8 -4 11 -10z m483 -15 c-3 -3 -9 2 -12 12 -6 14 -5 15 5
6 7 -7 10 -15 7 -18z m-513 -5 c3 -5 1 -10 -4 -10 -6 0 -11 5 -11 10 0 6 2 10
4 10 3 0 8 -4 11 -10z m515 -20 c0 -5 -5 -10 -11 -10 -5 0 -7 5 -4 10 3 6 8
10 11 10 2 0 4 -4 4 -10z m191 -23 c-6 -6 -11 -19 -11 -28 0 -9 -6 -22 -13
-28 -10 -8 -14 -7 -14 4 0 8 4 12 9 9 4 -3 8 4 8 15 0 11 5 23 10 26 6 4 7 11
4 17 -5 7 -2 8 5 3 9 -5 10 -10 2 -18z m-3715 -62 c-4 -14 -11 -23 -15 -20 -5
3 -4 16 2 29 15 31 22 25 13 -9z m3461 3 c-3 -8 -6 -5 -6 6 -1 11 2 17 5 13 3
-3 4 -12 1 -19z m-3217 -43 c0 -14 -4 -25 -9 -25 -6 0 -8 36 -2 48 5 10 11 -2
11 -23z m3189 -48 c1 -10 -3 -15 -9 -12 -5 3 -10 23 -9 43 1 33 2 34 9 12 4
-14 8 -33 9 -43z m151 -8 c0 -6 -4 -7 -10 -4 -5 3 -10 11 -10 16 0 6 5 7 10 4
6 -3 10 -11 10 -16z m-80 -53 c0 -13 6 -24 13 -23 34 1 47 -4 47 -20 0 -15 -1
-15 -18 0 -10 10 -22 14 -25 10 -11 -10 -8 -23 5 -20 7 1 15 -15 19 -38 9 -50
3 -58 -12 -17 -6 18 -15 32 -20 32 -12 0 -12 -4 10 -53 26 -57 32 -79 22 -73
-10 6 -31 -37 -31 -64 0 -11 4 -20 8 -20 5 0 6 -15 4 -32 -4 -28 -6 -30 -13
-13 -8 20 -8 20 -9 0 -2 -11 -2 -24 -1 -28 1 -4 -6 -15 -14 -23 -8 -9 -13 -20
-10 -25 4 -5 1 -9 -5 -9 -11 0 -5 40 11 71 5 11 3 16 -7 16 -7 0 -14 -7 -14
-14 0 -8 -6 -13 -12 -10 -13 4 -14 114 -2 147 10 24 25 -27 18 -58 l-6 -27 16
22 c9 12 15 26 14 30 -1 4 3 29 11 55 12 42 11 51 -9 104 -12 32 -17 60 -12
62 5 1 7 14 4 29 -3 18 -1 24 7 19 6 -4 11 -18 11 -30z m160 -6 c0 -5 -2 -10
-4 -10 -3 0 -8 5 -11 10 -3 6 -1 10 4 10 6 0 11 -4 11 -10z m-2327 -35 c4 -8
2 -17 -3 -20 -6 -4 -10 3 -10 14 0 25 6 27 13 6z m2044 -7 c-3 -8 -6 -5 -6 6
-1 11 2 17 5 13 3 -3 4 -12 1 -19z m-3395 -70 c-9 -9 -12 -7 -12 12 0 19 3 21
12 12 9 -9 9 -15 0 -24z m3585 0 c-3 -8 -6 -5 -6 6 -1 11 2 17 5 13 3 -3 4
-12 1 -19z m-2447 2 c0 -5 -2 -10 -4 -10 -3 0 -8 5 -11 10 -3 6 -1 10 4 10 6
0 11 -4 11 -10z m2307 -67 c-3 -10 -5 -2 -5 17 0 19 2 27 5 18 2 -10 2 -26 0
-35z m-37 -3 c-15 -28 -20 -23 -13 13 4 18 9 25 15 19 6 -6 6 -18 -2 -32z m91
-7 c-12 -20 -14 -14 -5 12 4 9 9 14 11 11 3 -2 0 -13 -6 -23z m-1193 5 c7 -7
12 -43 12 -90 0 -137 -53 -197 -115 -131 l-25 28 -28 -32 c-37 -39 -86 -52
-113 -27 -17 15 -19 15 -19 1 0 -35 -38 -42 -311 -54 -67 -3 -88 -1 -98 10
-10 13 -15 13 -42 0 -54 -27 -110 0 -125 61 l-7 29 -18 -35 c-22 -43 -45 -63
-54 -48 -3 6 -10 8 -14 5 -5 -2 -16 13 -26 35 -15 33 -23 40 -46 40 -21 0 -29
6 -38 31 -15 44 -14 89 2 89 15 0 41 -26 50 -50 3 -8 6 11 6 43 1 43 5 59 17
64 30 11 69 -12 100 -60 32 -48 32 -48 38 -21 5 17 3 30 -4 34 -15 9 35 50 60
50 20 0 72 -38 66 -48 -2 -4 3 -20 10 -37 l13 -30 1 32 c0 17 7 39 16 47 32
33 134 11 162 -35 7 -11 15 -43 18 -72 3 -28 6 -53 8 -54 2 -2 6 24 10 57 8
71 22 87 99 112 28 10 54 18 57 18 15 1 41 -65 46 -119 4 -34 11 -61 15 -61 4
0 6 27 3 60 -7 73 18 125 67 135 17 4 32 5 34 3 2 -1 10 -25 18 -53 l14 -50
26 52 c37 72 84 102 115 71z m699 -75 c-2 -16 -4 -5 -4 22 0 28 2 40 4 28 2
-13 2 -35 0 -50z m403 38 c0 -6 -4 -12 -8 -15 -5 -3 -9 1 -9 9 0 8 4 15 9 15
4 0 8 -4 8 -9z m-1002 -52 c-2 -33 -8 -44 -27 -51 -23 -8 -23 -7 -17 33 8 51
13 59 32 59 12 0 14 -10 12 -41z m1039 9 c-3 -8 -6 -5 -6 6 -1 11 2 17 5 13 3
-3 4 -12 1 -19z m138 -19 c-4 -13 -3 -19 3 -15 5 3 8 -7 6 -25 -2 -18 0 -28 6
-24 6 3 7 -1 4 -9 -5 -13 -9 -12 -25 8 -16 20 -17 29 -8 55 12 34 24 43 14 10z
m-160 1 c3 -5 1 -10 -4 -10 -6 0 -11 5 -11 10 0 6 2 10 4 10 3 0 8 -4 11 -10z
m-336 -55 c0 -5 -4 -3 -9 5 -5 8 -9 22 -9 30 0 16 17 -16 18 -35z m462 -52
c-9 -16 -10 -15 -11 8 0 14 3 29 8 33 12 12 14 -22 3 -41z m-2496 -19 c14 -9
25 -23 25 -31 0 -8 5 -11 10 -8 6 3 10 1 10 -5 0 -21 64 -81 81 -77 10 3 32
-9 52 -27 60 -54 80 -67 88 -55 5 8 8 8 13 0 10 -16 76 -42 88 -35 5 3 15 1
22 -5 7 -6 21 -9 30 -5 9 3 23 1 30 -5 10 -9 16 -9 21 -1 5 8 11 8 20 0 8 -6
22 -10 32 -9 10 1 26 -1 36 -6 16 -7 91 -3 164 9 17 3 35 6 40 7 17 3 53 -14
53 -24 0 -8 4 -7 12 1 8 8 8 15 -2 27 -16 19 -6 20 13 1 9 -10 24 -12 48 -7
21 4 43 2 59 -6 15 -8 26 -9 28 -3 6 16 29 12 36 -6 4 -11 13 -14 28 -11 12 4
27 2 34 -4 8 -7 17 -5 28 6 9 9 20 13 26 10 10 -6 14 7 11 32 -1 7 8 10 25 7
14 -3 32 0 40 6 7 7 18 9 24 5 5 -3 20 1 32 9 12 9 32 16 44 16 36 0 54 11 54
32 0 15 5 19 19 15 12 -3 27 4 40 17 30 32 45 43 56 40 6 -2 18 14 28 36 19
41 41 45 50 9 8 -29 29 -23 27 9 -3 44 -1 46 20 19 11 -14 17 -32 14 -41 -3
-9 -1 -16 5 -16 8 0 9 -6 2 -18 -6 -10 -8 -28 -5 -39 3 -12 1 -24 -5 -27 -5
-4 -7 -14 -4 -23 4 -11 3 -14 -5 -9 -7 4 -12 1 -12 -9 0 -13 -4 -14 -20 -5
-17 9 -20 8 -20 -13 0 -14 7 -30 15 -37 13 -11 12 -14 -6 -29 -11 -9 -22 -29
-23 -45 -2 -15 -9 -32 -16 -36 -9 -5 -9 -9 -1 -14 16 -10 14 -23 -5 -30 -10
-4 -21 0 -28 9 -10 15 -15 14 -38 -8 -15 -14 -24 -29 -20 -33 4 -5 -1 -2 -10
5 -10 7 -23 11 -30 8 -7 -2 -21 2 -30 11 -16 14 -18 13 -18 -2 0 -9 3 -15 8
-13 4 3 7 -8 7 -24 0 -38 -9 -37 -20 4 -6 17 -16 33 -22 33 -7 1 -22 2 -33 3
-12 1 -22 10 -26 25 -7 28 -52 45 -65 25 -6 -10 -11 -10 -25 2 -13 11 -18 11
-21 2 -8 -23 -32 -15 -25 9 4 17 2 20 -11 15 -10 -4 -17 -2 -17 3 0 6 -7 10
-15 10 -18 0 -19 -14 -5 -40 8 -15 7 -18 -2 -15 -8 3 -18 15 -23 28 -7 16 -19
22 -42 23 -17 1 -46 7 -62 14 -20 8 -46 10 -74 5 -23 -4 -66 -7 -96 -6 -30 0
-59 -3 -65 -7 -12 -7 -24 -10 -79 -19 -32 -5 -38 -9 -33 -26 4 -15 2 -17 -7
-8 -16 16 -27 14 -28 -6 0 -15 -2 -15 -8 2 -8 19 -8 19 -19 -2 -7 -12 -12 -32
-12 -45 l1 -23 15 25 15 25 -6 -30 c-8 -37 -7 -35 -31 -29 -15 4 -21 15 -22
42 -2 20 -5 38 -6 40 -2 2 -16 -9 -31 -25 -15 -15 -24 -22 -21 -15 11 19 -8
14 -33 -9 -18 -17 -21 -28 -17 -58 5 -30 2 -39 -19 -54 -14 -10 -25 -13 -25
-8 0 5 5 13 10 16 7 4 7 13 0 25 -13 24 -60 24 -60 0 0 -12 -2 -12 -9 -1 -12
19 -24 -3 -17 -32 3 -12 3 -16 0 -9 -6 14 -44 17 -44 3 0 -11 47 -24 59 -16 5
2 14 -1 20 -8 8 -10 5 -18 -12 -33 -38 -34 -46 -36 -65 -17 -23 22 -34 60 -18
67 6 2 3 5 -6 5 -10 1 -18 6 -18 11 0 6 -15 10 -32 10 -18 -1 -46 2 -63 5 -24
4 -26 3 -10 -4 19 -9 19 -10 -2 -10 -12 -1 -27 -9 -32 -18 -6 -10 -11 -12 -11
-5 0 22 -3 27 -18 38 -8 6 -12 16 -8 22 10 17 -10 15 -42 -4 -17 -10 -21 -11
-10 -2 11 10 15 22 11 38 -6 21 -4 22 22 16 20 -5 31 -2 41 11 16 22 18 33 4
33 -5 0 -10 -7 -10 -15 0 -8 -9 -15 -20 -15 -23 0 -27 15 -5 24 8 3 15 11 14
18 0 10 -2 10 -6 1 -7 -20 -23 -15 -23 6 0 19 -2 19 -40 4 -32 -13 -45 -14
-63 -4 -20 10 -20 11 -2 8 27 -5 48 16 32 32 -8 8 -8 11 2 11 7 0 9 5 6 10 -4
6 -3 9 2 8 8 -3 13 5 13 21 0 5 -14 11 -31 15 -27 5 -30 8 -19 21 10 13 9 15
-9 15 -29 0 -28 30 2 30 20 1 20 2 -5 13 -21 9 -25 15 -18 27 8 12 12 12 18 3
6 -10 12 -10 28 2 17 13 17 14 2 15 -24 0 -23 21 2 27 11 3 17 9 14 14 -3 5 1
11 8 14 18 7 20 45 3 51 -8 3 -11 12 -8 21 3 8 7 24 8 36 1 12 3 26 4 31 0 4
12 1 26 -8 14 -9 36 -23 50 -32z m1995 6 c7 0 11 -3 7 -6 -11 -11 -47 7 -47
24 1 16 2 16 14 0 7 -10 19 -18 26 -18z m314 -15 c-4 -8 -10 -13 -15 -10 -4 3
-6 12 -3 20 4 8 10 13 15 10 4 -3 6 -12 3 -20z m197 -8 c-10 -9 -11 -8 -5 6 3
10 9 15 12 12 3 -3 0 -11 -7 -18z m-61 -17 c8 -15 8 -18 -3 -15 -8 4 -17 -7
-25 -28 -15 -42 -15 -50 1 -44 8 3 14 -5 15 -24 1 -16 -3 -29 -9 -29 -6 0 -8
7 -5 16 3 8 2 13 -3 10 -10 -7 -31 37 -32 67 0 12 -3 16 -6 10 -2 -7 -9 -13
-14 -13 -5 0 -3 11 3 25 6 14 19 25 30 25 10 0 18 5 18 10 0 17 19 11 30 -10z
m-490 -16 c11 -29 3 -54 -11 -33 -9 15 -12 59 -4 59 3 0 10 -12 15 -26z
m-2515 -25 c-6 -55 -12 -59 -21 -14 -5 27 -3 40 7 46 8 5 15 9 16 9 1 0 0 -19
-2 -41z m2851 -21 c-15 -10 -19 -3 -10 24 7 22 7 22 14 3 4 -11 3 -23 -4 -27z
m161 10 c-3 -8 -6 -5 -6 6 -1 11 2 17 5 13 3 -3 4 -12 1 -19z m0 -40 c-3 -8
-6 -5 -6 6 -1 11 2 17 5 13 3 -3 4 -12 1 -19z m-52 -35 c6 -25 -8 -53 -21 -40
-4 3 -8 24 -9 47 -2 31 1 38 10 30 7 -6 16 -23 20 -37z m-2986 3 c0 -14 -2
-16 -6 -6 -3 8 -10 21 -16 28 -7 9 -6 11 7 6 9 -3 16 -16 15 -28z m233 -61
c-5 -16 -14 -31 -21 -33 -15 -5 -7 33 12 56 14 18 17 10 9 -23z m2702 -11 c-6
-33 -44 -88 -44 -64 0 17 5 25 14 22 5 -2 6 4 3 13 -4 8 -2 15 3 15 6 0 10 11
10 25 0 14 5 25 10 25 7 0 8 -13 4 -36z m-2977 -16 c-3 -7 -5 -2 -5 12 0 14 2
19 5 13 2 -7 2 -19 0 -25z m3023 11 c0 -5 -7 -9 -15 -9 -9 0 -12 6 -9 15 6 15
24 11 24 -6z m-2996 -5 c3 -8 2 -12 -4 -9 -6 3 -10 10 -10 16 0 14 7 11 14 -7z
m2968 -57 c-6 -12 -13 -29 -15 -37 -3 -9 -6 -6 -6 8 -1 26 18 67 26 58 4 -3 1
-16 -5 -29z m-2572 9 c0 -2 -8 -10 -17 -17 -16 -13 -17 -12 -4 4 13 16 21 21
21 13z m-390 -22 c0 -8 -4 -12 -10 -9 -5 3 -9 -2 -7 -12 1 -10 -2 -19 -7 -20
-5 -1 -13 -7 -17 -15 -6 -9 -9 -7 -9 10 0 12 5 22 10 22 6 0 10 6 10 14 0 12
8 19 28 25 1 1 2 -6 2 -15z m-129 -79 c-3 -5 -7 -1 -9 10 -3 11 -9 23 -14 26
-6 4 -7 12 -3 19 9 15 35 -39 26 -55z m1701 -17 c-7 -7 -10 -5 -7 8 5 29 6 30
12 16 3 -8 1 -18 -5 -24z m1355 4 c-19 -21 -22 -42 -6 -42 5 0 7 -4 4 -10 -12
-19 -25 -10 -25 18 0 28 16 52 34 52 5 0 2 -8 -7 -18z m-2880 -79 c-3 -10 -5
-4 -5 12 0 17 2 24 5 18 2 -7 2 -21 0 -30z m2763 -4 c0 -4 -6 -9 -13 -12 -10
-4 -13 2 -9 20 3 18 7 21 13 11 5 -7 9 -16 9 -19z m-2790 1 c0 -5 -5 -10 -11
-10 -5 0 -7 5 -4 10 3 6 8 10 11 10 2 0 4 -4 4 -10z m1860 -26 c0 -8 -4 -12
-10 -9 -5 3 -10 10 -10 16 0 5 5 9 10 9 6 0 10 -7 10 -16z m50 -4 c0 -5 -5
-10 -11 -10 -5 0 -7 5 -4 10 3 6 8 10 11 10 2 0 4 -4 4 -10z m-800 -57 c-11
-17 -11 -17 -6 0 3 10 7 28 7 40 2 22 2 22 6 0 2 -12 -1 -30 -7 -40z m698 32
c-6 -14 -13 -24 -14 -22 -6 6 9 47 17 47 5 0 3 -11 -3 -25z m-1853 -24 c4 -15
3 -21 -3 -17 -5 3 -12 17 -15 32 -5 30 8 20 18 -15z m49 -21 c-8 -7 -34 31
-34 49 0 10 8 4 20 -14 10 -16 17 -32 14 -35z m1886 46 c0 -3 -4 -8 -10 -11
-5 -3 -10 -1 -10 4 0 6 5 11 10 11 6 0 10 -2 10 -4z m-970 -71 c0 -8 4 -15 8
-15 4 0 8 -8 8 -18 0 -14 -6 -17 -22 -14 -36 7 -43 62 -8 62 8 0 14 -7 14 -15z
m-689 -258 c-13 -13 -15 1 -4 30 7 17 8 17 11 -1 2 -10 -1 -23 -7 -29z m304
-7 c-3 -5 -12 -10 -18 -10 -7 0 -6 4 3 10 19 12 23 12 15 0z m-161 -116 c7
-19 -2 -37 -15 -29 -12 8 -12 45 0 45 5 0 12 -7 15 -16z m1676 -321 c0 -15 -2
-16 -10 -3 -8 12 -10 12 -10 1 0 -8 -3 -12 -6 -8 -8 7 4 27 17 27 5 0 9 -8 9
-17z m-53 -28 c0 -8 -4 -15 -9 -15 -10 0 -11 14 -1 23 9 10 10 9 10 -8z m-44
-20 c-3 -9 -2 -15 3 -14 20 3 28 -2 15 -10 -17 -11 -46 13 -36 29 10 16 25 12
18 -5z m-52 -46 c-11 -9 -21 -25 -21 -35 0 -9 -3 -14 -7 -11 -3 4 -11 3 -17
-2 -8 -6 -11 0 -11 19 -1 16 2 27 6 25 12 -8 59 20 60 35 0 13 2 13 6 1 3 -8
-4 -22 -16 -32z m-1058 -29 c3 -11 1 -20 -4 -20 -5 0 -9 9 -9 20 0 11 2 20 4
20 2 0 6 -9 9 -20z m971 2 c3 -5 -1 -9 -9 -9 -8 0 -12 4 -9 9 3 4 7 8 9 8 2 0
6 -4 9 -8z m211 -10 c-3 -3 -11 0 -18 7 -9 10 -8 11 6 5 10 -3 15 -9 12 -12z
m-45 -8 c0 -8 -5 -12 -10 -9 -6 4 -8 11 -5 16 9 14 15 11 15 -7z m77 -28 c-8
-6 -21 -22 -30 -35 -15 -23 -16 -23 -14 -2 1 11 4 21 8 21 4 0 9 9 12 20 3 14
10 18 21 14 14 -5 14 -8 3 -18z m-1172 -26 c3 -5 -1 -10 -10 -10 -9 0 -13 5
-10 10 3 6 8 10 10 10 2 0 7 -4 10 -10z m1105 -10 c0 -5 -4 -10 -10 -10 -5 0
-10 5 -10 10 0 6 5 10 10 10 6 0 10 -4 10 -10z m-1153 -6 c-3 -3 -12 -4 -19
-1 -8 3 -5 6 6 6 11 1 17 -2 13 -5z m1113 -3 c0 -5 -7 -14 -15 -21 -10 -9 -15
-9 -15 -1 0 6 5 11 11 11 5 0 7 5 4 10 -3 6 -1 10 4 10 6 0 11 -4 11 -9z m45
-21 c3 -5 2 -10 -4 -10 -5 0 -13 5 -16 10 -3 6 -2 10 4 10 5 0 13 -4 16 -10z
m-75 -30 c0 -5 -4 -10 -9 -10 -6 0 -13 5 -16 10 -3 6 1 10 9 10 9 0 16 -4 16
-10z m-20 -31 c0 -6 -4 -7 -10 -4 -5 3 -10 11 -10 16 0 6 5 7 10 4 6 -3 10
-11 10 -16z m48 -2 c13 4 14 3 3 -5 -7 -5 -10 -15 -7 -21 4 -6 -3 -20 -16 -30
-23 -19 -23 -19 -35 2 -18 31 -16 39 7 32 16 -5 20 -2 21 17 0 13 3 18 5 11 3
-7 13 -9 22 -6z m-68 -66 c0 -17 -18 -21 -24 -6 -3 9 0 15 9 15 8 0 15 -4 15
-9z m-40 -21 c0 -5 -4 -10 -10 -10 -5 0 -10 5 -10 10 0 6 5 10 10 10 6 0 10
-4 10 -10z m70 -40 c0 -5 -8 -10 -17 -10 -15 0 -16 2 -3 10 19 12 20 12 20 0z
m-40 -22 c0 -13 -23 -5 -28 10 -2 7 2 10 12 6 9 -3 16 -11 16 -16z m-871 -46
c-14 -5 -39 6 -39 17 0 5 11 4 25 -2 13 -7 20 -14 14 -15z m871 8 c0 -5 -4
-10 -10 -10 -5 0 -10 5 -10 10 0 6 5 10 10 10 6 0 10 -4 10 -10z m74 -31 c-3
-6 -3 -17 0 -26 6 -14 8 -14 21 3 13 18 14 18 12 -3 -1 -14 -10 -24 -25 -28
-28 -7 -62 2 -62 17 0 5 7 8 15 4 8 -3 16 0 17 7 0 7 2 17 3 22 2 6 3 14 4 18
0 5 6 5 11 2 6 -4 8 -11 4 -16z m-214 -39 c0 -5 -5 -10 -11 -10 -5 0 -7 5 -4
10 3 6 8 10 11 10 2 0 4 -4 4 -10z m112 -2 c-9 -9 -15 -9 -24 0 -9 9 -7 12 12
12 19 0 21 -3 12 -12z m-742 -40 c0 -6 -7 -7 -16 -4 -9 3 -18 6 -20 6 -3 0 -3
4 1 10 7 11 35 2 35 -12z m724 -3 c-28 -22 -40 -18 -13 4 13 11 26 17 28 15 3
-2 -4 -11 -15 -19z m-630 -4 c4 -5 -1 -8 -9 -7 -21 3 -31 16 -12 16 9 0 18 -4
21 -9z m760 -7 c3 -8 2 -12 -3 -9 -5 3 -11 -1 -13 -10 -2 -10 -8 -12 -17 -6
-17 11 -7 41 13 41 7 0 17 -7 20 -16z m186 2 c0 -3 -14 -18 -31 -35 -28 -29
-32 -60 -6 -45 7 4 9 3 4 -1 -11 -13 -47 -13 -47 -1 0 6 9 22 20 36 11 14 20
31 20 38 0 10 40 19 40 8z m44 -11 c-4 -8 -8 -15 -10 -15 -2 0 -4 7 -4 15 0 8
4 15 10 15 5 0 7 -7 4 -15z m-314 -9 c0 -9 -7 -12 -21 -9 -16 4 -17 8 -7 14
19 13 28 11 28 -5z m-737 -21 c-7 -21 -13 -19 -13 6 0 11 4 18 10 14 5 -3 7
-12 3 -20z m681 0 c3 -9 0 -15 -9 -15 -8 0 -15 7 -15 15 0 8 4 15 9 15 5 0 11
-7 15 -15z m321 -14 c3 -5 1 -12 -5 -16 -5 -3 -10 1 -10 9 0 18 6 21 15 7z
m-395 -27 c-13 -14 -36 -9 -43 10 -3 8 4 11 24 8 23 -3 27 -7 19 -18z m295 17
c3 -5 1 -12 -5 -16 -5 -3 -10 1 -10 9 0 18 6 21 15 7z m-727 -19 c2 -8 -8 -12
-32 -12 -33 0 -44 8 -30 23 10 10 57 2 62 -11z m378 -69 c-11 -11 -19 6 -11
24 8 17 8 17 12 0 3 -10 2 -21 -1 -24z m-386 -14 c0 -11 -40 -48 -53 -49 -10
0 12 42 27 52 16 11 26 10 26 -3z m180 -49 c0 -5 -5 -10 -11 -10 -5 0 -7 5 -4
10 3 6 8 10 11 10 2 0 4 -4 4 -10z"/>
<path d="M3885 4280 c-3 -5 -1 -10 4 -10 6 0 11 5 11 10 0 6 -2 10 -4 10 -3 0
-8 -4 -11 -10z"/>
<path d="M6231 3624 c0 -11 3 -14 6 -6 3 7 2 16 -1 19 -3 4 -6 -2 -5 -13z"/>
<path d="M3730 3480 c0 -5 5 -10 10 -10 6 0 10 5 10 10 0 6 -4 10 -10 10 -5 0
-10 -4 -10 -10z"/>
<path d="M5290 3411 c0 -5 3 -17 6 -26 5 -13 9 -14 15 -3 7 11 11 10 19 -2 13
-20 13 -4 0 21 -11 19 -40 27 -40 10z"/>
<path d="M5223 3252 c-8 -5 -8 -11 1 -24 8 -11 17 -14 27 -7 8 5 9 9 2 9 -6 0
-13 7 -15 15 -2 8 -8 11 -15 7z"/>
<path d="M5190 3160 c0 -5 5 -10 11 -10 5 0 7 5 4 10 -3 6 -8 10 -11 10 -2 0
-4 -4 -4 -10z"/>
<path d="M3710 3144 c0 -8 5 -12 10 -9 6 4 8 11 5 16 -9 14 -15 11 -15 -7z"/>
<path d="M3794 3125 c36 -19 42 -19 26 0 -7 8 -22 15 -34 15 -18 0 -17 -2 8
-15z"/>
<path d="M4130 3039 c0 -5 5 -7 10 -4 6 3 10 8 10 11 0 2 -4 4 -10 4 -5 0 -10
-5 -10 -11z"/>
<path d="M3860 3024 c0 -9 7 -14 17 -12 24 4 27 23 3 25 -12 1 -20 -4 -20 -13z"/>
<path d="M3908 3003 c7 -3 16 -2 19 1 4 3 -2 6 -13 5 -11 0 -14 -3 -6 -6z"/>
<path d="M3990 2910 c0 -5 5 -10 11 -10 5 0 7 5 4 10 -3 6 -8 10 -11 10 -2 0
-4 -4 -4 -10z"/>
<path d="M3017 8033 c-12 -12 -7 -22 8 -17 8 4 15 10 15 15 0 11 -14 12 -23 2z"/>
<path d="M3028 7923 c5 -21 7 -23 10 -9 2 10 0 22 -6 28 -6 6 -7 0 -4 -19z"/>
<path d="M730 7049 c0 -5 6 -9 13 -9 8 0 7 -3 -3 -9 -8 -6 -17 -8 -21 -6 -3 3
-12 -8 -20 -23 -7 -15 -23 -40 -35 -57 -40 -57 -164 -283 -217 -396 -549
-1167 -590 -2489 -115 -3674 153 -380 381 -781 616 -1080 63 -81 83 -100 102
-99 33 2 109 13 140 21 14 3 29 5 34 4 5 -1 41 3 80 8 39 6 98 13 131 16 33 3
78 10 100 15 22 5 72 12 110 16 66 7 82 9 88 13 1 1 32 3 69 4 36 2 73 9 82
16 9 7 25 11 36 8 11 -3 22 -2 25 2 2 4 18 7 35 6 16 -1 30 1 30 5 0 4 6 7 13
8 21 1 57 11 68 18 7 4 25 7 40 6 26 -1 34 7 30 31 -1 4 9 5 22 1 15 -3 30 0
40 10 8 9 22 16 29 16 10 0 9 3 -2 11 -11 7 -12 12 -3 15 7 3 9 12 6 20 -4 10
2 17 16 21 11 3 21 10 21 15 0 5 -5 6 -10 3 -6 -4 -18 -1 -26 6 -8 7 -14 8
-12 3 2 -5 0 -10 -4 -11 -5 -2 -8 -1 -8 2 0 3 0 10 0 16 0 6 8 9 18 7 14 -4
17 3 19 45 1 28 8 54 15 59 9 7 2 8 -19 4 -39 -6 -39 -6 -13 24 16 18 17 25 8
32 -10 6 -10 8 -1 8 7 0 10 7 7 15 -4 8 -13 15 -21 15 -10 0 -13 6 -9 15 3 8
9 23 12 33 5 14 4 14 -4 3 -9 -12 -12 -10 -17 12 -4 15 -11 27 -16 27 -8 0 -6
22 6 53 5 12 2 17 -9 17 -21 0 -20 16 2 29 9 6 12 11 6 11 -6 0 -10 16 -9 36
1 29 -2 34 -16 31 -28 -8 -29 18 -3 47 14 14 20 26 14 26 -6 0 -8 5 -5 10 3 6
-1 10 -10 10 -11 0 -15 5 -11 15 3 8 1 15 -5 15 -6 0 -6 6 0 18 6 10 6 24 1
32 -5 8 -6 18 -3 23 3 4 2 20 -2 35 -6 25 -8 25 -19 10 -14 -19 -26 -14 -26
11 0 13 2 13 9 2 7 -11 11 -9 20 8 9 16 9 21 0 21 -8 0 -10 14 -6 44 6 44 -9
75 -29 58 -4 -4 -3 0 4 10 8 10 9 19 3 22 -5 3 -12 0 -14 -6 -3 -7 -6 -4 -6 7
-1 12 4 26 11 33 9 9 8 12 -5 12 -9 0 -17 7 -17 16 0 8 4 13 9 9 5 -3 13 0 17
6 4 7 3 9 -3 6 -6 -4 -19 3 -29 15 -11 12 -13 18 -6 14 10 -6 10 -2 0 18 -6
14 -14 26 -18 26 -4 0 -10 9 -13 21 -5 19 -4 20 12 5 16 -15 18 -15 16 4 -1
10 -9 28 -18 38 -20 22 -22 36 -4 26 6 -4 2 4 -9 17 -12 13 -20 33 -18 44 5
25 -15 65 -31 65 -7 0 -12 10 -11 23 1 15 -4 22 -16 21 -10 -1 -18 2 -18 7 0
5 5 9 11 9 5 0 7 5 4 10 -4 6 -8 22 -11 36 -3 18 -1 23 8 18 6 -4 3 7 -8 26
-21 37 -48 53 -38 23 5 -14 4 -15 -4 -3 -14 19 -4 33 18 27 13 -3 17 0 13 9
-3 8 -9 14 -15 14 -5 0 -6 4 -3 10 4 6 -1 7 -11 3 -11 -4 -15 -3 -10 5 3 6 2
13 -3 17 -6 3 -7 15 -2 29 7 18 5 25 -11 35 -12 7 -17 16 -11 20 17 11 24 41
8 35 -10 -4 -12 0 -8 15 3 12 -2 27 -12 38 -17 17 -17 18 5 23 l23 5 -27 32
c-27 31 -34 49 -16 38 6 -3 10 -1 10 4 0 6 -4 11 -9 11 -5 0 -8 8 -6 18 1 9 0
22 -4 27 -6 11 -8 17 -10 41 0 8 -6 12 -11 9 -14 -9 -12 28 3 44 10 11 10 13
0 7 -7 -4 -13 -2 -13 3 0 6 -5 11 -11 11 -5 0 -7 -4 -4 -10 3 -5 1 -10 -4 -10
-6 0 -11 5 -11 11 0 6 -7 9 -15 5 -8 -3 -15 -1 -15 5 0 6 8 9 18 7 9 -1 18 1
20 5 5 12 -38 97 -49 97 -6 0 -7 6 -3 12 13 21 11 48 -3 48 -18 0 -17 16 2 24
8 3 15 11 15 18 0 10 -2 10 -9 0 -7 -11 -9 -11 -14 2 -4 9 -11 16 -17 16 -6 0
-8 -4 -5 -10 3 -5 1 -10 -4 -10 -14 0 -14 17 0 26 8 4 7 9 -2 15 -10 6 -11 9
-1 9 18 0 15 21 -5 36 -11 8 -13 13 -5 14 25 0 11 19 -23 30 -19 6 -33 16 -29
21 3 6 0 18 -7 27 -11 14 -11 15 1 5 11 -10 16 -9 27 5 11 15 12 13 8 -15 -4
-25 -2 -33 9 -33 8 0 18 4 21 10 3 5 0 7 -8 4 -8 -3 -14 2 -14 11 0 10 6 14
16 10 13 -5 13 -4 -1 12 -10 11 -14 31 -12 53 l4 35 -10 -32 c-8 -25 -15 -31
-31 -28 -31 6 -34 12 -10 20 12 3 21 13 21 22 0 13 -3 13 -15 3 -12 -10 -15
-10 -15 4 0 9 8 16 19 16 21 0 22 19 2 44 -10 11 -10 16 -2 16 7 0 9 5 6 11
-4 6 -14 8 -22 5 -11 -5 -13 -2 -9 11 5 11 -1 23 -16 35 -21 17 -22 19 -6 28
25 15 12 36 -22 34 -21 -1 -27 2 -23 12 3 8 9 14 13 14 4 0 6 14 4 32 -4 30
-3 30 14 15 10 -10 25 -17 33 -16 8 0 3 5 -10 10 -20 8 -22 11 -10 27 11 14
11 15 0 5 -7 -6 -20 -9 -27 -6 -8 3 -21 0 -29 -7 -9 -7 -18 -10 -22 -6 -3 3 0
6 8 6 10 1 9 4 -4 11 -15 9 -16 13 -5 26 7 9 12 18 11 20 -2 1 0 3 5 4 4 0 11
8 16 16 6 11 4 20 -8 29 -16 11 -15 13 6 28 12 9 18 16 12 16 -6 0 -19 6 -29
14 -18 13 -18 14 8 9 16 -3 27 -1 27 6 0 5 -7 8 -15 5 -8 -4 -15 -1 -15 5 0 6
-7 8 -15 5 -11 -4 -15 1 -15 17 0 19 -2 21 -10 9 -5 -8 -10 -13 -11 -10 -8 52
-7 58 13 52 17 -4 19 -2 11 14 -6 10 -9 29 -8 42 1 12 -2 22 -7 22 -5 0 0 12
9 27 12 18 13 24 4 19 -11 -7 -13 -3 -7 20 4 16 3 24 -1 17 -5 -7 -14 -9 -22
-4 -9 6 -10 11 -2 15 19 12 13 54 -10 61 -17 6 -18 9 -7 22 10 12 9 18 -6 28
-10 8 -15 18 -12 24 4 5 2 12 -4 16 -6 4 -8 10 -5 15 3 5 1 11 -4 15 -6 3 -7
13 -4 22 5 12 2 15 -10 10 -14 -5 -15 -2 -7 19 13 33 13 34 -7 34 -14 0 -15 2
-5 9 11 7 11 11 0 22 -8 8 -16 19 -17 24 -2 6 -11 26 -20 45 -10 19 -16 43
-13 54 2 11 0 16 -7 12 -7 -5 -11 1 -11 14 0 12 -4 18 -10 15 -5 -3 -10 1 -10
10 0 10 5 13 12 9 7 -5 8 -3 4 5 -5 7 -14 10 -22 7 -10 -4 -12 2 -8 24 5 22 1
34 -19 54 -14 14 -22 27 -19 30 3 3 0 6 -7 6 -7 0 -11 6 -8 14 3 8 0 20 -8 26
-8 6 -11 18 -8 26 3 8 -2 23 -11 33 -9 10 -13 21 -9 24 3 4 -1 7 -10 7 -9 0
-17 5 -17 10 0 6 5 10 10 10 6 0 10 7 10 16 0 11 -6 14 -17 10 -16 -5 -16 -5
0 8 18 14 18 15 0 33 -24 24 -56 91 -48 102 3 5 -3 12 -14 16 -11 3 -18 13
-17 23 2 9 -4 28 -13 41 -9 14 -16 32 -16 40 0 9 -6 15 -14 13 -9 -2 -11 3 -7
14 4 10 0 21 -11 29 -10 7 -18 28 -19 50 -1 24 2 32 7 24 7 -11 9 -11 9 2 0 9
-7 19 -15 23 -17 6 -13 39 10 89 8 15 10 25 5 22 -5 -3 -12 0 -16 6 -4 7 -3 9
3 6 6 -4 16 0 23 8 7 8 9 15 5 15 -4 0 -2 6 4 13 6 8 7 18 3 22 -4 5 -2 5 5 1
7 -4 14 3 19 16 3 12 22 38 40 58 19 19 39 49 46 65 6 17 15 32 18 35 12 10
76 106 83 123 10 26 -61 66 -149 83 -41 7 -84 19 -95 24 -10 6 -19 8 -19 5 0
-3 -18 6 -40 20 -22 14 -46 25 -54 25 -8 0 -16 4 -18 10 -4 12 -57 15 -82 5
-14 -6 -17 -5 -11 4 6 10 3 11 -15 1 -19 -10 -22 -10 -18 2 4 9 -1 14 -13 15
-10 1 -19 -2 -19 -8z m440 -1049 c0 -5 -2 -10 -4 -10 -3 0 -8 5 -11 10 -3 6
-1 10 4 10 6 0 11 -4 11 -10z m292 -802 c-7 -7 -12 -8 -12 -2 0 14 12 26 19
19 2 -3 -1 -11 -7 -17z m111 -564 c-4 -10 -10 -11 -24 -3 -24 13 -24 14 5 15
17 1 23 -2 19 -12z m217 -684 c0 -5 -4 -10 -10 -10 -5 0 -10 5 -10 10 0 6 5
10 10 10 6 0 10 -4 10 -10z m13 -39 c3 -13 1 -18 -9 -14 -7 2 -10 11 -7 19 7
19 10 18 16 -5z m214 -657 c-3 -3 -12 -4 -19 -1 -8 3 -5 6 6 6 11 1 17 -2 13
-5z"/>
<path d="M2716 6393 c-6 -14 -5 -15 5 -6 7 7 10 15 7 18 -3 3 -9 -2 -12 -12z"/>
<path d="M2695 6360 c-3 -5 -13 -6 -23 -3 -14 6 -15 4 -5 -9 7 -8 9 -19 5 -23
-4 -5 -1 -5 5 -1 13 7 37 46 29 46 -3 0 -7 -4 -11 -10z"/>
<path d="M5005 6013 c-33 -8 -72 -15 -87 -16 -16 -2 -41 -16 -57 -31 -26 -25
-29 -26 -35 -9 -7 17 -8 17 -17 0 -6 -9 -7 -23 -3 -30 5 -7 0 -6 -11 3 -10 8
-16 10 -12 4 3 -6 -3 -25 -14 -43 -16 -27 -22 -31 -34 -21 -11 9 -15 9 -15 1
0 -6 5 -11 10 -11 6 0 10 -7 10 -15 0 -8 -4 -15 -10 -15 -5 0 -10 4 -10 9 0 5
-8 11 -18 13 -22 6 -58 -17 -43 -27 18 -11 12 -24 -9 -20 -15 3 -20 -1 -18
-13 2 -14 -4 -17 -34 -16 -32 1 -36 -1 -28 -16 6 -11 5 -21 -1 -27 -8 -8 -5
-17 10 -32 25 -25 27 -51 4 -51 -14 0 -14 -2 2 -20 10 -11 29 -20 42 -20 13 0
22 -5 21 -12 -2 -7 5 -12 14 -12 10 1 15 -3 12 -8 -4 -6 -1 -14 5 -18 9 -5 7
-21 -9 -59 -29 -76 -30 -164 -1 -220 17 -32 26 -40 34 -32 16 16 27 13 27 -7
0 -10 5 -23 12 -30 7 -7 8 -12 4 -12 -5 0 14 -18 43 -41 28 -22 49 -44 46 -49
-3 -4 2 -11 11 -14 27 -11 37 -7 24 9 -11 13 -10 14 4 9 11 -4 16 -14 13 -25
-3 -13 0 -19 11 -20 10 -1 24 -2 32 -3 8 -1 21 3 28 8 8 6 17 5 24 -2 7 -7 21
-12 32 -12 11 0 47 -11 80 -24 34 -14 72 -27 86 -30 14 -3 43 -10 65 -17 36
-10 77 -11 160 -5 17 1 64 3 105 5 50 2 68 5 55 10 -14 6 8 11 67 16 51 4 85
11 82 17 -3 5 -12 7 -18 5 -7 -3 -28 -2 -47 2 -31 7 -27 9 36 16 39 4 98 9
132 9 50 1 59 4 50 14 -11 14 -16 14 -342 -3 -95 -5 -181 4 -150 15 18 7 16 9
-10 15 -16 3 -51 13 -77 21 -26 8 -54 14 -62 14 -9 0 -16 4 -16 9 0 4 -11 6
-25 3 -14 -2 -25 0 -25 6 0 13 39 36 48 28 3 -3 -1 -6 -9 -7 -37 -1 43 -22 96
-24 33 -2 78 -8 101 -14 23 -6 133 -11 254 -12 117 -1 225 -5 241 -10 16 -5
43 -13 59 -18 42 -13 37 -5 -12 21 -39 21 -58 23 -198 25 -85 1 -191 4 -235 8
-44 4 -98 9 -120 11 -80 7 -137 23 -132 38 2 6 15 10 28 9 142 -12 308 -19
328 -12 32 9 18 12 -84 15 -44 1 -91 4 -105 7 -14 2 -40 5 -57 6 -22 1 -33 6
-33 15 0 22 15 27 57 18 31 -7 156 -1 235 12 24 3 35 16 14 16 -16 0 -15 3 4
30 22 31 75 44 64 16 -6 -14 22 -30 37 -20 5 3 9 12 9 20 0 9 7 14 18 12 11
-2 17 -13 17 -32 1 -16 7 -32 14 -34 10 -3 12 1 7 13 -5 14 -4 15 6 7 8 -6 34
-12 58 -14 33 -2 46 -8 48 -20 2 -13 -6 -19 -35 -24 -21 -4 -42 -10 -48 -14
-19 -13 -107 -12 -116 2 -7 10 -11 10 -17 1 -4 -7 -19 -16 -32 -21 -17 -6 31
-8 137 -5 148 4 222 -2 277 -23 16 -6 17 -4 7 14 -6 11 -24 23 -40 27 -17 4
-33 15 -36 26 -4 10 -13 19 -21 19 -8 0 -14 5 -14 10 0 7 19 9 53 5 49 -6 51
-5 32 10 -11 9 -32 19 -47 22 -31 6 -36 18 -12 27 26 10 47 7 66 -11 11 -9 18
-11 18 -5 0 7 -4 12 -10 12 -5 0 -10 5 -10 10 0 6 6 10 14 10 8 0 17 4 20 9 3
4 -38 7 -92 5 -89 -4 -95 -3 -67 10 29 14 95 93 95 115 0 6 -9 11 -20 11 -11
0 -20 5 -20 11 0 8 -5 8 -15 -1 -8 -7 -15 -20 -15 -30 0 -9 -9 -25 -21 -36
-21 -19 -21 -18 -70 35 -26 29 -51 61 -54 72 -4 10 -12 19 -18 19 -7 0 -17 8
-24 19 -6 10 -33 29 -58 41 -26 12 -49 28 -51 35 -5 12 -48 25 -98 30 -11 1
-22 7 -24 13 -2 7 -21 12 -43 12 -21 0 -39 5 -39 10 0 6 4 10 10 10 5 0 7 6 5
13 -3 7 9 26 27 43 27 25 42 31 82 32 33 0 45 -3 35 -9 -10 -6 -3 -9 23 -9 21
0 43 -6 50 -14 11 -11 17 -12 38 -1 14 7 36 16 50 20 23 7 24 6 11 -9 -8 -9
-10 -16 -5 -15 28 5 53 -3 57 -18 4 -17 5 -17 6 0 0 10 6 15 11 12 6 -4 8 -10
5 -15 -8 -14 48 -16 105 -4 30 6 47 12 38 13 -26 2 -22 21 5 22 21 1 21 1 -3
9 -21 7 -22 8 -5 10 17 1 17 3 -6 13 -14 7 -37 25 -51 40 -15 15 -39 30 -55
33 -34 6 -72 30 -80 50 -3 9 -20 14 -48 14 -24 0 -47 5 -50 10 -4 6 -15 8 -26
5 -10 -4 -24 -3 -31 1 -7 4 -28 9 -48 11 -19 2 -46 7 -60 12 -32 10 -146 4
-182 -10 -20 -8 -36 -8 -59 0 -41 14 -91 15 -69 1 11 -7 5 -10 -23 -10 -23 0
-36 4 -32 10 7 11 3 12 -75 15 -30 0 -82 -5 -115 -12z m418 -20 c-7 -2 -19 -2
-25 0 -7 3 -2 5 12 5 14 0 19 -2 13 -5z m167 -573 c0 -5 -9 -10 -21 -10 -11 0
-17 5 -14 10 3 6 13 10 21 10 8 0 14 -4 14 -10z m-310 -160 c0 -5 5 -10 11
-10 5 0 7 5 4 10 -3 6 -1 10 4 10 6 0 11 -7 11 -15 0 -10 -10 -15 -30 -15 -20
0 -30 5 -30 15 0 8 7 15 15 15 8 0 15 -4 15 -10z m-60 -40 c11 -7 7 -10 -17
-10 -17 0 -35 5 -38 10 -8 13 35 13 55 0z m-70 -64 c0 -3 -4 -8 -10 -11 -5 -3
-10 -1 -10 4 0 6 5 11 10 11 6 0 10 -2 10 -4z m70 -36 c0 -5 -5 -10 -11 -10
-5 0 -7 5 -4 10 3 6 8 10 11 10 2 0 4 -4 4 -10z"/>
<path d="M4740 5960 c0 -5 5 -10 10 -10 6 0 10 5 10 10 0 6 -4 10 -10 10 -5 0
-10 -4 -10 -10z"/>
<path d="M3558 5940 c-10 -15 -23 -20 -54 -20 -22 0 -44 -3 -48 -7 -11 -12
-106 -31 -106 -22 0 4 6 10 13 12 36 15 -36 3 -83 -13 -54 -19 -54 -19 -20
-21 25 -1 17 -4 -30 -11 -36 -6 -75 -11 -87 -12 -13 0 -23 -7 -23 -13 0 -7 -9
-13 -19 -13 -11 0 -28 -13 -38 -30 -9 -16 -23 -30 -31 -30 -7 0 -11 -4 -8 -9
8 -12 -13 -27 -49 -36 -27 -7 -28 -8 -10 -15 17 -8 18 -9 3 -11 -10 -1 -22 -3
-28 -4 -5 -1 -15 -3 -21 -4 -5 0 -8 -5 -5 -10 4 -5 0 -12 -6 -14 -9 -4 -5 -12
12 -26 14 -11 19 -21 13 -21 -7 0 -13 -7 -13 -15 0 -8 3 -15 8 -15 10 0 39 20
28 20 -5 0 -2 8 5 17 12 15 12 16 -1 8 -13 -8 -13 -7 -1 8 7 9 20 17 28 17 8
0 11 5 7 12 -5 8 0 9 14 6 12 -4 22 -2 22 4 0 6 15 8 34 6 19 -2 32 0 30 4
-11 17 7 25 38 19 22 -5 42 -2 60 8 24 14 30 14 64 -2 32 -16 36 -16 24 -2
-20 24 -4 29 27 7 22 -15 32 -17 47 -8 14 8 20 8 23 -1 3 -7 12 -13 20 -13 9
0 22 -8 29 -17 17 -23 18 -36 2 -27 -7 4 -5 -2 6 -14 21 -25 27 -21 -79 -48
-38 -10 -76 -24 -83 -31 -8 -7 -18 -11 -23 -8 -12 8 -179 -158 -179 -179 0 -9
-9 -25 -20 -36 -11 -11 -15 -20 -9 -20 7 0 5 -10 -5 -25 -9 -14 -12 -25 -7
-25 5 0 16 11 25 25 11 17 25 25 44 25 l27 -1 -25 -21 c-14 -11 -24 -25 -22
-30 1 -5 -9 -21 -23 -36 -20 -22 -37 -28 -88 -33 l-62 -6 53 -1 c61 -2 73 -26
20 -40 -32 -8 -32 -9 -9 -16 14 -5 26 -4 30 2 3 6 19 14 34 17 24 6 32 16 25
29 -5 9 48 58 72 68 49 20 88 26 99 15 7 -7 26 -10 44 -9 21 2 39 -4 53 -17
16 -15 24 -17 33 -8 9 9 14 9 20 -2 5 -7 14 -10 20 -7 6 4 11 2 11 -4 0 -7 7
-9 16 -6 8 3 25 -3 36 -14 12 -11 27 -20 32 -20 14 0 166 29 188 36 38 12 6
-22 -42 -45 -55 -26 -73 -51 -37 -51 13 0 27 4 33 8 20 19 119 34 154 24 l35
-10 -57 -25 c-31 -15 -67 -28 -81 -29 -13 -2 -44 -13 -68 -25 -55 -27 -115
-39 -249 -54 -58 -6 -107 -12 -109 -15 -2 -2 36 -4 85 -5 l89 -1 -45 -13 c-34
-9 -41 -14 -28 -20 18 -7 208 -1 268 9 26 5 30 4 15 -3 -17 -8 -17 -10 -3 -10
9 -1 28 10 42 24 14 14 34 25 45 25 11 0 22 4 26 10 3 5 12 7 20 3 9 -3 22 0
30 7 8 6 18 9 23 7 7 -5 59 16 102 41 8 5 32 17 53 27 20 10 37 24 37 32 0 7
5 13 10 13 6 0 15 11 20 25 5 14 16 25 24 25 21 0 10 25 -17 38 -21 10 -21 11
13 26 19 8 31 16 25 16 -5 1 1 6 14 11 15 6 28 6 36 -1 21 -17 27 18 9 46 -17
24 -17 24 10 14 27 -10 27 -9 21 21 -5 20 -4 29 3 25 13 -8 26 44 13 57 -6 6
-6 19 0 36 9 24 8 25 -6 7 -8 -11 -15 -23 -15 -28 0 -16 -20 -8 -31 13 -11 21
-5 31 26 42 5 2 10 14 10 28 1 13 8 35 15 49 8 14 14 30 15 35 0 6 12 11 26
13 27 3 46 36 28 47 -4 3 -6 12 -2 20 3 9 0 22 -7 30 -11 14 -15 14 -36 1 -22
-15 -22 -15 -13 17 12 41 12 42 -6 27 -16 -13 -18 -9 -15 28 1 12 -3 22 -9 22
-6 0 -11 -8 -11 -17 -1 -57 -47 -50 -56 8 -4 23 -12 39 -20 39 -8 0 -14 5 -14
11 0 5 -5 7 -12 3 -6 -4 -8 -3 -5 3 4 6 -7 22 -23 36 -24 22 -29 23 -32 10 -3
-15 -5 -15 -21 1 -13 14 -26 16 -52 12 -20 -4 -35 -3 -35 3 0 19 -57 22 -99 5
-23 -9 -45 -14 -48 -10 -4 3 1 6 10 6 10 0 17 4 17 10 0 6 -39 9 -94 9 -52 -1
-99 2 -105 5 -6 4 -16 -2 -23 -14z m519 -122 c-3 -8 -6 -5 -6 6 -1 11 2 17 5
13 3 -3 4 -12 1 -19z m-631 -295 c-14 -8 -31 -11 -36 -8 -5 3 -12 0 -17 -7
-19 -31 -88 -52 -77 -24 6 16 134 66 148 58 5 -3 -3 -11 -18 -19z m-166 -67
c0 -18 -15 -36 -31 -36 -21 0 -26 25 -6 33 16 7 37 8 37 3z m77 -88 c0 -7 4
-21 8 -30 5 -14 2 -18 -13 -18 -36 0 -33 46 4 60 0 0 1 -6 1 -12z"/>
<path d="M2968 5743 c7 -3 16 -2 19 1 4 3 -2 6 -13 5 -11 0 -14 -3 -6 -6z"/>
<path d="M5995 5680 c-16 -7 -17 -9 -3 -9 9 -1 20 4 23 9 7 11 7 11 -20 0z"/>
<path d="M6035 5410 c-8 -13 5 -13 25 0 13 8 13 10 -2 10 -9 0 -20 -4 -23 -10z"/>
<path d="M6892 5262 l-30 -28 -6 -159 c-4 -88 -13 -218 -22 -290 -19 -157 -35
-347 -30 -352 2 -2 9 20 16 49 16 71 56 191 87 257 13 30 27 68 30 85 3 17 12
40 18 51 22 35 45 156 51 268 5 94 3 111 -12 128 -25 27 -67 24 -102 -9z"/>
<path d="M2960 5240 c0 -5 12 -10 28 -9 24 0 25 1 7 9 -27 12 -35 12 -35 0z"/>
<path d="M3268 5213 c7 -3 16 -2 19 1 4 3 -2 6 -13 5 -11 0 -14 -3 -6 -6z"/>
<path d="M5408 5099 c-8 -5 10 -9 46 -9 33 0 57 3 54 6 -10 9 -86 12 -100 3z"/>
<path d="M5545 5090 c4 -6 11 -8 16 -5 14 9 11 15 -7 15 -8 0 -12 -5 -9 -10z"/>
<path d="M3024 5079 c-3 -5 6 -9 20 -9 31 0 34 6 6 13 -11 3 -23 1 -26 -4z"/>
<path d="M2070 5014 c-14 -36 -12 -89 5 -202 15 -94 41 -159 88 -226 22 -32
47 -76 97 -174 17 -35 34 -61 37 -58 3 3 -4 54 -16 113 -11 59 -35 191 -52
293 -17 102 -37 196 -46 210 -46 73 -95 93 -113 44z"/>
<path d="M3210 5023 c-50 -8 -160 -45 -167 -56 -4 -7 0 -8 13 -2 10 5 66 21
124 36 92 24 106 35 30 22z"/>
<path d="M4937 5019 c7 -7 15 -10 18 -7 3 3 -2 9 -12 12 -14 6 -15 5 -6 -5z"/>
<path d="M1522 4980 c0 -14 2 -19 5 -12 2 6 2 18 0 25 -3 6 -5 1 -5 -13z"/>
<path d="M3720 4970 c-12 -8 -11 -10 7 -10 12 0 25 5 28 10 8 13 -15 13 -35 0z"/>
<path d="M3685 4960 c-3 -5 -1 -10 4 -10 6 0 11 5 11 10 0 6 -2 10 -4 10 -3 0
-8 -4 -11 -10z"/>
<path d="M1520 4803 c0 -1 8 -7 18 -12 13 -7 19 -6 19 2 0 7 -9 13 -19 13 -10
0 -18 -1 -18 -3z"/>
<path d="M1570 4680 c-9 -6 -10 -10 -3 -10 6 0 15 5 18 10 8 12 4 12 -15 0z"/>
<path d="M5218 4613 c7 -3 16 -2 19 1 4 3 -2 6 -13 5 -11 0 -14 -3 -6 -6z"/>
<path d="M6426 4597 c3 -10 9 -15 12 -12 3 3 0 11 -7 18 -10 9 -11 8 -5 -6z"/>
<path d="M3702 4560 c-25 -24 -27 -30 -9 -30 8 0 19 11 25 25 14 30 12 31 -16
5z"/>
<path d="M5465 4450 c3 -5 8 -10 11 -10 2 0 4 5 4 10 0 6 -5 10 -11 10 -5 0
-7 -4 -4 -10z"/>
<path d="M6365 4421 c-3 -5 -2 -12 3 -15 5 -3 9 1 9 9 0 17 -3 19 -12 6z"/>
<path d="M6790 4389 c0 -15 -51 -85 -104 -144 -46 -50 -66 -99 -48 -117 17
-17 95 77 131 157 19 42 36 115 26 115 -3 0 -5 -5 -5 -11z"/>
<path d="M5695 4360 c-3 -5 -1 -10 4 -10 6 0 11 5 11 10 0 6 -2 10 -4 10 -3 0
-8 -4 -11 -10z"/>
<path d="M5835 4310 c3 -5 8 -10 11 -10 2 0 4 5 4 10 0 6 -5 10 -11 10 -5 0
-7 -4 -4 -10z"/>
<path d="M6050 4262 c0 -4 10 -13 23 -21 22 -14 22 -14 3 8 -20 22 -26 25 -26
13z"/>
<path d="M2936 4055 c-3 -8 -1 -15 4 -15 6 0 10 7 10 15 0 8 -2 15 -4 15 -2 0
-6 -7 -10 -15z"/>
<path d="M2417 4045 c14 -24 85 -96 90 -91 3 2 0 20 -6 39 -9 26 -21 38 -51
50 -31 12 -38 12 -33 2z"/>
<path d="M5910 4025 c0 -9 5 -15 11 -13 6 2 11 8 11 13 0 5 -5 11 -11 13 -6 2
-11 -4 -11 -13z"/>
<path d="M2760 3933 c0 -4 5 -15 10 -23 8 -13 10 -13 10 2 0 9 -4 20 -10 23
-5 3 -10 3 -10 -2z"/>
<path d="M2820 3865 c0 -8 -5 -15 -11 -15 -8 0 -8 -4 1 -15 6 -8 8 -20 4 -27
-4 -8 -4 -9 3 -3 15 16 32 62 26 69 -11 11 -23 6 -23 -9z"/>
<path d="M2880 3835 c7 -9 15 -13 17 -11 7 7 -7 26 -19 26 -6 0 -6 -6 2 -15z"/>
<path d="M3250 3815 c0 -8 2 -15 4 -15 2 0 6 7 10 15 3 8 1 15 -4 15 -6 0 -10
-7 -10 -15z"/>
<path d="M2825 3773 c3 -13 2 -23 -3 -23 -16 0 -23 -30 -12 -50 7 -13 6 -20
-3 -23 -16 -6 -5 -17 21 -22 16 -3 19 1 14 17 -4 17 -2 20 11 15 11 -4 15 0
14 12 -1 13 -7 17 -20 13 -17 -4 -18 -1 -13 24 3 16 1 36 -5 44 -8 12 -9 10
-4 -7z"/>
<path d="M3260 3730 c0 -5 5 -10 10 -10 6 0 10 5 10 10 0 6 -4 10 -10 10 -5 0
-10 -4 -10 -10z"/>
<path d="M2879 3678 c-5 -17 -4 -46 3 -42 4 3 8 -5 7 -18 0 -13 -3 -17 -6 -10
-3 8 -10 5 -22 -10 -23 -30 -33 -58 -21 -58 6 0 10 5 10 12 0 9 3 9 12 0 8 -8
8 -15 -1 -25 -12 -15 -5 -47 10 -47 5 0 9 -5 9 -10 0 -7 -6 -7 -20 0 -17 9
-20 8 -20 -9 0 -23 16 -37 22 -19 3 7 12 9 23 4 14 -5 16 -9 7 -18 -7 -7 -12
-16 -12 -22 0 -5 12 4 26 20 16 17 24 22 21 12 -4 -10 -2 -18 2 -18 14 0 20
27 9 38 -5 5 -12 37 -15 71 -3 33 -10 58 -15 55 -4 -3 -7 -8 -4 -12 2 -4 0
-16 -5 -27 -7 -20 -8 -20 -8 1 -1 12 4 36 10 53 9 25 14 30 21 19 7 -10 8 -8
4 5 -3 10 -6 23 -6 28 0 6 -8 9 -17 7 -10 -2 -17 3 -15 10 2 10 -6 18 -9 10z
m28 -185 c-4 -3 -2 -12 4 -20 9 -9 8 -13 0 -13 -6 0 -11 2 -11 4 0 2 -3 11 -6
20 -4 10 -1 16 7 16 7 0 9 -3 6 -7z"/>
<path d="M3260 3640 c-13 -8 -13 -10 2 -10 9 0 20 5 23 10 8 13 -5 13 -25 0z"/>
<path d="M3225 3630 c-3 -5 -1 -10 4 -10 6 0 11 5 11 10 0 6 -2 10 -4 10 -3 0
-8 -4 -11 -10z"/>
<path d="M3321 3624 c0 -11 3 -14 6 -6 3 7 2 16 -1 19 -3 4 -6 -2 -5 -13z"/>
<path d="M2830 3605 c0 -8 4 -15 10 -15 5 0 7 7 4 15 -4 8 -8 15 -10 15 -2 0
-4 -7 -4 -15z"/>
<path d="M3270 3598 c0 -19 2 -20 10 -8 13 19 13 30 0 30 -5 0 -10 -10 -10
-22z"/>
<path d="M2800 3600 c0 -5 5 -10 11 -10 5 0 7 5 4 10 -3 6 -8 10 -11 10 -2 0
-4 -4 -4 -10z"/>
<path d="M2806 3543 c-4 -9 -2 -21 4 -27 7 -7 10 -2 10 17 0 31 -5 34 -14 10z"/>
<path d="M3018 3553 c6 -2 18 -2 25 0 6 3 1 5 -13 5 -14 0 -19 -2 -12 -5z"/>
<path d="M2957 3510 c3 -11 7 -20 9 -20 2 0 4 9 4 20 0 11 -4 20 -9 20 -5 0
-7 -9 -4 -20z"/>
<path d="M2960 3476 c0 -2 4 -16 10 -30 6 -17 6 -26 0 -26 -18 0 -11 -48 8
-55 13 -5 14 -4 5 6 -9 9 -9 20 2 46 8 19 10 31 4 27 -6 -3 -9 1 -7 11 2 10
-3 20 -9 22 -7 3 -13 2 -13 -1z"/>
<path d="M3030 3461 c0 -6 4 -13 10 -16 6 -3 7 1 4 9 -7 18 -14 21 -14 7z"/>
<path d="M2927 3383 c3 -17 1 -23 -4 -16 -5 7 -8 -13 -8 -47 0 -47 4 -63 20
-75 11 -9 13 -13 5 -9 -11 6 -11 3 2 -12 10 -11 24 -37 33 -57 9 -21 19 -36
23 -33 14 8 6 53 -16 90 -12 21 -22 46 -22 57 0 10 -4 19 -10 19 -5 0 -7 -7
-4 -15 4 -9 0 -15 -8 -15 -7 0 -14 9 -14 19 0 11 3 18 6 16 4 -2 7 21 8 51 0
29 -3 54 -7 54 -5 0 -6 -12 -4 -27z"/>
<path d="M3049 3396 c-1 -3 -2 -9 -3 -13 -18 -71 -17 -95 2 -113 20 -19 20
-19 24 28 5 54 -3 79 -13 42 l-7 -25 -1 26 c-1 14 4 30 10 36 8 8 8 13 0 17
-6 4 -12 5 -12 2z"/>
<path d="M2888 3375 c-6 -25 6 -66 14 -44 2 8 2 25 -2 39 -6 23 -7 23 -12 5z"/>
<path d="M3000 3353 c0 -4 5 -15 10 -23 8 -13 10 -13 10 2 0 9 -4 20 -10 23
-5 3 -10 3 -10 -2z"/>
<path d="M2951 3324 c0 -11 3 -14 6 -6 3 7 2 16 -1 19 -3 4 -6 -2 -5 -13z"/>
<path d="M3107 3063 c-9 -2 -15 -9 -12 -14 9 -14 22 -11 29 6 3 8 4 14 3 14
-1 -1 -10 -3 -20 -6z"/>
<path d="M5962 2840 c-12 -19 -11 -20 8 -8 20 13 27 28 12 28 -4 0 -13 -9 -20
-20z"/>
<path d="M5926 2821 c-8 -13 18 -31 31 -23 9 6 6 11 -7 20 -10 6 -21 8 -24 3z"/>
<path d="M5680 2509 c0 -5 5 -7 10 -4 6 3 10 8 10 11 0 2 -4 4 -10 4 -5 0 -10
-5 -10 -11z"/>
<path d="M3564 2449 c-3 -6 -2 -15 3 -20 5 -5 9 -1 10 11 2 22 -2 25 -13 9z"/>
<path d="M5827 2452 c2 -3 -4 -16 -13 -30 -8 -13 -14 -26 -11 -28 2 -3 12 7
22 22 10 15 13 29 7 34 -5 4 -7 5 -5 2z"/>
<path d="M5786 2355 c-3 -8 -1 -15 4 -15 6 0 10 7 10 15 0 8 -2 15 -4 15 -2 0
-6 -7 -10 -15z"/>
<path d="M5430 2311 c0 -5 5 -13 10 -16 6 -3 10 -2 10 4 0 5 -4 13 -10 16 -5
3 -10 2 -10 -4z"/>
<path d="M5755 2309 c-4 -6 -5 -12 -2 -15 2 -3 7 2 10 11 7 17 1 20 -8 4z"/>
<path d="M5490 2291 c0 -6 5 -13 10 -16 6 -3 10 1 10 9 0 9 -4 16 -10 16 -5 0
-10 -4 -10 -9z"/>
<path d="M5746 2271 c-18 -7 -18 -8 -2 -14 10 -4 22 -5 27 -1 5 3 9 0 9 -7 0
-7 2 -10 5 -7 7 6 -5 38 -14 37 -3 0 -15 -4 -25 -8z"/>
<path d="M5460 2245 c-11 -13 -10 -14 4 -9 9 3 16 10 16 15 0 13 -6 11 -20 -6z"/>
<path d="M5776 2215 c-3 -8 -1 -15 4 -15 6 0 10 7 10 15 0 8 -2 15 -4 15 -2 0
-6 -7 -10 -15z"/>
<path d="M3806 2185 c-9 -26 -7 -32 5 -12 6 10 9 21 6 23 -2 3 -7 -2 -11 -11z"/>
<path d="M5663 2183 c9 -2 17 -9 17 -14 0 -5 8 -9 18 -9 15 1 15 2 -2 15 -11
8 -27 14 -35 14 -13 -1 -12 -2 2 -6z"/>
<path d="M5535 2170 c-3 -5 1 -10 10 -10 9 0 13 5 10 10 -3 6 -8 10 -10 10 -2
0 -7 -4 -10 -10z"/>
<path d="M5623 2150 c1 -16 9 -26 22 -28 18 -2 18 -1 4 10 -9 7 -19 20 -22 28
-4 9 -6 5 -4 -10z"/>
<path d="M5425 2130 c3 -5 8 -10 11 -10 2 0 4 5 4 10 0 6 -5 10 -11 10 -5 0
-7 -4 -4 -10z"/>
<path d="M3827 2123 c-4 -3 -7 -11 -7 -17 0 -6 5 -5 12 2 6 6 9 14 7 17 -3 3
-9 2 -12 -2z"/>
<path d="M3908 2122 c-17 -7 -17 -8 0 -18 15 -10 18 -8 19 7 1 11 1 19 0 18
-1 0 -10 -4 -19 -7z"/>
<path d="M5615 2100 c3 -5 10 -10 16 -10 5 0 9 5 9 10 0 6 -7 10 -16 10 -8 0
-12 -4 -9 -10z"/>
<path d="M5725 2100 c-3 -5 -2 -10 4 -10 5 0 13 5 16 10 3 6 2 10 -4 10 -5 0
-13 -4 -16 -10z"/>
<path d="M5440 2096 c0 -2 7 -7 16 -10 8 -3 12 -2 9 4 -6 10 -25 14 -25 6z"/>
<path d="M3034 2055 c-11 -62 14 -422 34 -480 16 -45 64 -177 109 -295 22 -58
44 -118 50 -135 28 -75 62 -145 98 -198 66 -98 122 -189 155 -252 18 -33 40
-69 51 -81 10 -11 19 -25 19 -31 0 -6 4 -13 8 -15 12 -5 52 -77 52 -94 0 -8
13 -27 28 -44 16 -16 39 -44 53 -62 13 -17 36 -46 52 -64 15 -17 27 -36 27
-41 0 -5 7 -32 15 -60 13 -44 20 -53 67 -78 29 -16 63 -36 76 -46 13 -10 30
-15 38 -12 8 3 20 0 27 -6 11 -8 14 -7 14 7 1 9 -1 24 -4 32 -13 32 -1 66 18
54 5 -3 9 10 8 28 -1 28 -2 29 -7 10 -4 -13 -11 -22 -17 -20 -5 2 -9 7 -7 12
2 5 -4 6 -11 3 -10 -4 -13 0 -10 11 2 11 -5 21 -18 27 -30 13 -36 35 -10 35
24 0 37 18 23 32 -7 7 -6 23 3 49 8 22 10 39 6 39 -5 0 -11 -9 -14 -20 -6 -23
-37 -27 -37 -5 0 8 7 15 15 15 20 0 9 25 -18 39 -24 13 -57 64 -57 87 0 9 -4
13 -8 10 -7 -4 -52 28 -52 37 0 1 24 1 54 0 49 -1 53 0 48 19 -3 12 -7 15 -12
9 -16 -26 -64 0 -89 48 -11 19 -11 25 0 32 10 6 5 11 -19 20 -21 7 -29 14 -22
19 8 5 5 9 -9 13 -16 4 -21 13 -21 37 0 24 -4 31 -17 29 -35 -3 -41 2 -39 32
1 27 -4 33 -31 43 -25 9 -30 14 -23 27 7 12 2 23 -21 43 -16 15 -27 31 -25 35
3 5 -4 17 -16 27 -14 13 -19 14 -14 4 5 -8 -3 -1 -18 15 -14 17 -28 38 -31 47
-3 9 -12 15 -19 12 -8 -3 -20 9 -30 33 -26 59 -42 84 -49 76 -4 -3 -7 3 -7 15
0 12 -4 22 -10 22 -5 0 -10 6 -10 14 0 16 -56 76 -71 76 -9 0 -49 72 -49 90 0
6 5 8 11 4 7 -4 10 -1 7 7 -2 8 -17 20 -31 27 -15 7 -27 17 -27 21 0 4 -11 21
-25 37 -14 16 -25 38 -25 50 0 11 -9 29 -20 39 -10 9 -18 20 -18 24 1 3 -7 24
-19 46 -11 22 -31 74 -44 115 -21 65 -24 92 -22 208 1 72 0 132 -2 132 -2 0
-7 -16 -11 -35z"/>
<path d="M5590 2081 c0 -6 5 -11 11 -11 5 0 7 -4 4 -10 -3 -5 1 -10 10 -10 22
0 15 34 -8 38 -9 2 -17 -1 -17 -7z"/>
<path d="M3760 2059 c0 -7 -8 -9 -21 -6 -12 3 -18 3 -15 0 3 -4 1 -12 -4 -18
-8 -9 -5 -14 10 -18 18 -5 19 -3 8 11 -10 12 -10 14 0 8 7 -4 19 -1 27 8 9 9
11 17 5 21 -5 3 -10 1 -10 -6z"/>
<path d="M5492 2045 c-12 -13 -17 -27 -12 -30 5 -3 14 5 21 17 7 13 17 26 23
30 8 5 8 8 0 8 -6 0 -20 -11 -32 -25z"/>
<path d="M5664 2055 c-12 -9 -14 -14 -6 -15 7 0 20 7 28 15 20 19 4 20 -22 0z"/>
<path d="M3968 2053 c7 -3 16 -2 19 1 4 3 -2 6 -13 5 -11 0 -14 -3 -6 -6z"/>
<path d="M4005 2030 c3 -5 11 -10 16 -10 6 0 7 5 4 10 -3 6 -11 10 -16 10 -6
0 -7 -4 -4 -10z"/>
<path d="M5677 2033 c-4 -3 -7 -13 -7 -21 0 -12 3 -12 15 -2 8 7 15 16 15 21
0 11 -14 12 -23 2z"/>
<path d="M3864 2022 c3 -6 -3 -12 -15 -14 l-21 -3 23 -25 c17 -19 20 -20 15
-6 -3 10 -2 24 4 31 8 10 8 15 -1 21 -7 4 -9 3 -5 -4z"/>
<path d="M5600 2020 c0 -5 5 -10 10 -10 6 0 10 5 10 10 0 6 -4 10 -10 10 -5 0
-10 -4 -10 -10z"/>
<path d="M5385 2009 c-4 -6 -5 -12 -2 -15 2 -3 7 2 10 11 7 17 1 20 -8 4z"/>
<path d="M5418 2013 c6 -2 18 -2 25 0 6 3 1 5 -13 5 -14 0 -19 -2 -12 -5z"/>
<path d="M5630 2000 c0 -11 -5 -20 -11 -20 -5 0 -7 -5 -4 -10 4 -7 12 -7 25 0
26 14 29 13 23 -9 -3 -11 2 -21 12 -25 13 -5 15 -2 10 17 -4 12 -13 27 -21 33
-7 6 -11 13 -8 16 2 3 -2 8 -11 11 -10 5 -15 0 -15 -13z"/>
<path d="M5530 1995 c0 -9 -7 -18 -15 -21 -8 -4 -15 -13 -15 -21 0 -8 5 -11
10 -8 6 3 10 -1 10 -9 0 -9 4 -16 10 -16 5 0 7 7 4 15 -4 8 -2 15 4 15 13 0
23 27 16 45 -8 20 -24 19 -24 0z"/>
<path d="M3890 1990 c0 -5 5 -10 11 -10 5 0 7 5 4 10 -3 6 -8 10 -11 10 -2 0
-4 -4 -4 -10z"/>
<path d="M5455 1969 c-4 -11 -16 -19 -28 -20 -12 0 -16 -3 -9 -6 13 -5 72 18
72 28 0 18 -30 16 -35 -2z"/>
<path d="M5736 1953 c-3 -4 -6 -15 -6 -25 0 -20 25 -25 33 -5 5 14 -17 39 -27
30z"/>
<path d="M5320 1940 c0 -6 11 -22 25 -36 30 -30 32 -48 5 -39 -11 3 -20 2 -20
-3 0 -6 12 -13 28 -16 15 -4 35 -9 44 -12 10 -3 18 2 21 13 4 15 5 15 6 2 0
-9 -5 -28 -12 -42 l-14 -26 -32 20 c-35 21 -51 24 -51 9 0 -5 8 -10 18 -10 13
0 18 -8 17 -32 0 -24 -4 -33 -16 -32 -10 1 -22 -9 -27 -21 -9 -19 -8 -22 11
-21 12 1 28 -2 35 -7 6 -5 12 -6 12 -1 0 4 7 -1 15 -12 14 -19 14 -18 15 4 0
12 5 22 10 22 6 0 10 7 10 15 0 11 8 15 28 13 23 -3 27 0 25 22 -1 14 0 19 3
12 3 -6 11 -9 17 -5 6 4 8 0 4 -10 -8 -21 6 -22 23 -2 7 8 16 12 21 10 10 -7
49 30 49 45 0 15 -17 12 -24 -5 -3 -9 -12 -12 -21 -9 -9 4 -14 13 -11 20 10
27 -12 64 -36 61 -20 -2 -23 2 -22 31 1 17 -2 32 -7 32 -5 0 -9 -4 -9 -10 0
-5 -9 -10 -20 -10 -11 0 -23 -7 -26 -15 -9 -22 -31 -18 -37 6 -4 15 -11 20
-21 16 -10 -4 -16 -1 -16 8 0 7 -4 17 -10 20 -5 3 -10 1 -10 -5z m85 -80 c3
-6 -1 -7 -9 -4 -18 7 -21 14 -7 14 6 0 13 -4 16 -10z m111 -19 c-8 -12 -46
-21 -46 -11 0 5 10 11 23 13 12 2 23 5 25 6 2 0 1 -3 -2 -8z m-56 -85 c0 -3
-4 -8 -10 -11 -5 -3 -10 -1 -10 4 0 6 5 11 10 11 6 0 10 -2 10 -4z m-93 -48
c-3 -8 -6 -5 -6 6 -1 11 2 17 5 13 3 -3 4 -12 1 -19z"/>
<path d="M5365 1940 c3 -5 12 -7 20 -3 21 7 19 13 -6 13 -11 0 -18 -4 -14 -10z"/>
<path d="M3854 1925 c-18 -14 -18 -14 9 -15 15 0 27 4 27 9 0 18 -17 20 -36 6z"/>
<path d="M5570 1920 c0 -5 5 -10 11 -10 5 0 7 5 4 10 -3 6 -8 10 -11 10 -2 0
-4 -4 -4 -10z"/>
<path d="M5550 1890 c0 -5 5 -10 10 -10 6 0 10 5 10 10 0 6 -4 10 -10 10 -5 0
-10 -4 -10 -10z"/>
<path d="M5573 1874 c-3 -8 -9 -11 -14 -8 -15 9 -10 -23 6 -36 12 -10 15 -9
15 5 0 9 9 19 20 22 26 7 26 19 -1 26 -12 3 -22 0 -26 -9z"/>
<path d="M3943 1862 c-16 -10 -3 -29 19 -29 13 0 15 4 7 19 -11 21 -10 20 -26
10z"/>
<path d="M5274 1835 c-3 -8 -14 -17 -25 -20 -16 -5 -17 -9 -6 -26 10 -16 9
-21 -3 -29 -11 -8 -3 -10 30 -9 25 1 54 -2 65 -6 18 -8 19 -7 6 8 -7 9 -24 17
-36 17 -20 0 -22 4 -19 40 3 41 -2 52 -12 25z"/>
<path d="M6005 1732 c-4 -59 -14 -127 -22 -152 -17 -48 -68 -123 -120 -175
-18 -17 -33 -35 -33 -39 0 -11 -30 -39 -31 -29 0 4 -4 -2 -9 -14 -6 -14 -15
-20 -27 -17 -22 6 -52 -35 -34 -45 6 -4 -6 -15 -28 -24 -22 -10 -50 -35 -66
-57 -15 -22 -31 -37 -36 -34 -5 3 -9 0 -9 -6 0 -6 -16 -27 -35 -46 -31 -31
-33 -35 -13 -30 l23 6 -22 -11 c-13 -7 -23 -16 -23 -21 0 -11 -48 -10 -55 2
-13 21 -26 9 -22 -19 4 -20 -1 -33 -15 -45 -11 -10 -17 -23 -15 -31 6 -13 -16
-15 -29 -3 -10 10 -34 -3 -34 -18 0 -8 -7 -14 -16 -14 -8 0 -12 -4 -9 -10 3
-5 0 -10 -7 -10 -8 0 -6 -5 5 -11 9 -6 15 -14 12 -20 -4 -5 -1 -9 4 -9 6 0 11
-5 11 -11 0 -6 -9 -9 -19 -6 -18 4 -37 -16 -32 -36 1 -4 -7 -3 -18 2 -19 10
-19 10 -4 -20 14 -27 13 -32 -1 -48 -9 -10 -13 -22 -9 -26 5 -5 0 -3 -10 5
-17 12 -18 11 -11 -15 5 -20 4 -26 -5 -21 -6 4 -11 1 -11 -7 0 -8 -6 -17 -14
-20 -19 -7 -43 -58 -41 -85 1 -12 -4 -22 -12 -22 -7 0 -13 5 -13 10 0 6 -9 10
-19 10 -12 0 -21 -10 -25 -27 -4 -16 -9 -36 -12 -45 -4 -14 0 -18 18 -18 47 0
49 -14 8 -58 -22 -23 -40 -49 -40 -57 0 -8 -4 -15 -10 -15 -5 0 -10 8 -10 17
0 13 -3 14 -11 6 -8 -8 -7 -17 5 -34 18 -26 21 -59 6 -59 -6 0 -22 11 -36 25
-14 14 -26 25 -28 25 -2 0 -2 -27 -2 -60 1 -33 -2 -60 -6 -60 -3 0 -4 -9 -1
-20 3 -11 1 -20 -5 -20 -5 0 -12 -9 -15 -20 -3 -13 0 -20 8 -20 20 0 11 -48
-11 -65 -51 -38 49 -37 314 1 38 6 44 10 62 51 10 24 39 67 63 96 25 29 58 79
75 112 16 33 49 81 72 107 36 42 41 52 35 80 l-6 33 20 -25 c11 -14 22 -23 24
-20 2 3 15 34 27 70 13 36 31 76 41 89 11 13 19 31 19 40 0 9 42 101 94 206
52 104 104 215 116 245 41 105 94 323 101 420 10 138 10 268 0 274 -5 3 -12
-43 -16 -102z m-512 -747 c-3 -9 -8 -14 -10 -11 -3 3 -2 9 2 15 9 16 15 13 8
-4z"/>
<path d="M5190 1792 c0 -14 6 -22 16 -22 14 0 15 3 3 18 -7 9 -15 19 -16 21
-2 2 -3 -5 -3 -17z"/>
<path d="M3886 1792 c-3 -5 1 -15 9 -22 16 -14 20 -3 6 19 -5 8 -11 9 -15 3z"/>
<path d="M3965 1770 c3 -5 8 -10 11 -10 2 0 4 5 4 10 0 6 -5 10 -11 10 -5 0
-7 -4 -4 -10z"/>
<path d="M3940 1740 c0 -5 5 -10 10 -10 6 0 10 5 10 10 0 6 -4 10 -10 10 -5 0
-10 -4 -10 -10z"/>
<path d="M4040 1702 c0 -11 6 -22 13 -25 9 -3 9 -7 0 -19 -17 -20 -4 -31 14
-12 11 11 12 18 4 28 -7 8 -10 19 -9 26 2 7 -3 15 -9 17 -8 3 -13 -4 -13 -15z"/>
<path d="M4100 1680 c-8 -5 -10 -10 -5 -10 6 0 17 5 25 10 8 5 11 10 5 10 -5
0 -17 -5 -25 -10z"/>
<path d="M5455 1670 c3 -5 8 -10 11 -10 2 0 4 5 4 10 0 6 -5 10 -11 10 -5 0
-7 -4 -4 -10z"/>
<path d="M3680 1656 c0 -2 7 -9 15 -16 13 -11 14 -10 9 4 -5 14 -24 23 -24 12z"/>
<path d="M4130 1651 c0 -6 -8 -11 -17 -11 -15 0 -16 -2 -3 -10 10 -6 16 -6 18
0 2 6 8 8 13 4 5 -3 9 -1 9 5 0 5 -4 13 -10 16 -5 3 -10 1 -10 -4z"/>
<path d="M4190 1596 c0 -2 7 -6 15 -10 8 -3 15 -1 15 4 0 6 -7 10 -15 10 -8 0
-15 -2 -15 -4z"/>
<path d="M4110 1550 c0 -5 5 -10 11 -10 5 0 7 5 4 10 -3 6 -8 10 -11 10 -2 0
-4 -4 -4 -10z"/>
<path d="M5470 1522 c0 -7 -10 -13 -22 -13 -19 -1 -20 -2 -4 -6 20 -5 44 12
33 24 -4 3 -7 1 -7 -5z"/>
<path d="M4203 1480 c-1 -11 2 -22 8 -25 5 -4 9 1 9 9 0 9 0 19 1 23 0 4 -3 9
-8 10 -5 2 -9 -6 -10 -17z"/>
<path d="M5000 1456 c0 -9 5 -16 10 -16 6 0 10 4 10 9 0 6 -4 13 -10 16 -5 3
-10 -1 -10 -9z"/>
<path d="M5276 1431 c-4 -7 -5 -15 -2 -18 9 -9 19 4 14 18 -4 11 -6 11 -12 0z"/>
<path d="M4128 1393 c7 -3 16 -2 19 1 4 3 -2 6 -13 5 -11 0 -14 -3 -6 -6z"/>
<path d="M4080 1386 c0 -2 7 -9 15 -16 12 -10 15 -10 15 4 0 9 -7 16 -15 16
-8 0 -15 -2 -15 -4z"/>
<path d="M4240 1380 c0 -5 5 -10 11 -10 5 0 7 5 4 10 -3 6 -8 10 -11 10 -2 0
-4 -4 -4 -10z"/>
<path d="M5280 1361 c0 -6 6 -8 13 -5 16 6 20 -35 5 -53 -6 -8 -8 -16 -4 -20
11 -11 24 11 28 47 3 30 0 35 -19 38 -13 2 -23 -1 -23 -7z"/>
<path d="M4651 1311 c-10 -7 -11 -13 -2 -30 7 -12 17 -19 22 -15 7 4 7 10 1
16 -6 6 -8 17 -5 24 6 16 3 17 -16 5z"/>
<path d="M5360 1290 c0 -11 5 -20 10 -20 6 0 10 9 10 20 0 11 -4 20 -10 20 -5
0 -10 -9 -10 -20z"/>
<path d="M4355 1290 c4 -6 11 -8 16 -5 14 9 11 15 -7 15 -8 0 -12 -5 -9 -10z"/>
<path d="M4780 1290 c0 -5 5 -10 10 -10 6 0 10 5 10 10 0 6 -4 10 -10 10 -5 0
-10 -4 -10 -10z"/>
<path d="M4700 1270 c0 -5 5 -10 10 -10 6 0 10 5 10 10 0 6 -4 10 -10 10 -5 0
-10 -4 -10 -10z"/>
<path d="M4475 1250 l-20 -9 20 0 c11 0 27 4 35 9 13 9 13 10 0 9 -8 0 -24 -4
-35 -9z"/>
<path d="M4535 1250 c3 -5 8 -10 11 -10 2 0 4 5 4 10 0 6 -5 10 -11 10 -5 0
-7 -4 -4 -10z"/>
<path d="M4610 1250 c-13 -9 -13 -10 0 -11 8 0 0 -5 -17 -10 -18 -5 -33 -14
-33 -20 0 -7 7 -8 18 -4 9 4 25 8 35 9 23 3 41 22 33 35 -9 13 -16 14 -36 1z"/>
<path d="M3410 1226 c0 -2 7 -7 16 -10 8 -3 12 -2 9 4 -6 10 -25 14 -25 6z"/>
<path d="M4850 1206 c0 -8 8 -17 17 -20 18 -7 41 9 29 21 -4 4 -11 1 -16 -7
-8 -13 -10 -12 -10 3 0 9 -4 17 -10 17 -5 0 -10 -6 -10 -14z"/>
<path d="M4965 1211 c-6 -11 9 -23 19 -14 9 9 7 23 -3 23 -6 0 -12 -4 -16 -9z"/>
<path d="M5600 1195 c-7 -9 -8 -15 -2 -15 5 0 12 7 16 15 3 8 4 15 2 15 -2 0
-9 -7 -16 -15z"/>
<path d="M4935 1190 c-3 -5 -1 -10 4 -10 6 0 11 5 11 10 0 6 -2 10 -4 10 -3 0
-8 -4 -11 -10z"/>
<path d="M4720 1170 c0 -5 5 -10 10 -10 6 0 10 5 10 10 0 6 -4 10 -10 10 -5 0
-10 -4 -10 -10z"/>
<path d="M5292 1162 c-20 -3 -21 -6 -10 -19 10 -13 10 -17 1 -20 -20 -7 -15
-51 6 -63 15 -7 23 -6 35 6 9 8 16 18 17 22 0 4 2 17 4 28 6 27 -23 51 -53 46z"/>
<path d="M4957 1085 c-4 -8 -2 -17 2 -20 5 -2 11 4 14 15 6 23 -8 27 -16 5z"/>
<path d="M5174 1035 c21 -16 32 -13 21 4 -3 6 -14 11 -23 11 -15 -1 -15 -2 2
-15z"/>
<path d="M5240 1041 c0 -5 5 -13 10 -16 6 -3 10 -2 10 4 0 5 -4 13 -10 16 -5
3 -10 2 -10 -4z"/>
<path d="M5360 1046 c0 -2 7 -7 16 -10 8 -3 12 -2 9 4 -6 10 -25 14 -25 6z"/>
<path d="M5207 947 c4 -7 -1 -8 -13 -3 -13 5 -16 4 -9 -3 6 -6 24 -6 45 -1 35
8 34 11 -7 15 -13 1 -20 -2 -16 -8z"/>
<path d="M5200 870 c0 -5 5 -10 10 -10 6 0 10 5 10 10 0 6 -4 10 -10 10 -5 0
-10 -4 -10 -10z"/>
<path d="M5080 836 c0 -8 4 -17 8 -20 4 -2 8 4 8 15 0 10 -4 19 -8 19 -4 0 -8
-6 -8 -14z"/>
<path d="M4420 825 c-1 -11 -3 -28 -5 -37 -4 -20 12 -23 35 -8 13 9 13 12 -1
23 -9 6 -18 19 -22 27 -4 11 -6 10 -7 -5z"/>
<path d="M4343 803 c-21 -4 -33 -22 -15 -24 4 0 17 -2 30 -5 17 -3 22 1 22 16
0 11 -3 19 -7 19 -5 -1 -18 -4 -30 -6z"/>
<path d="M5170 660 c0 -5 5 -10 10 -10 6 0 10 5 10 10 0 6 -4 10 -10 10 -5 0
-10 -4 -10 -10z"/>
<path d="M4177 530 c13 -10 18 -21 13 -26 -5 -5 -5 -15 0 -24 5 -8 13 -11 17
-6 4 5 2 11 -5 13 -18 7 -4 23 19 23 17 0 18 2 7 13 -7 8 -27 16 -43 19 l-30
6 22 -18z"/>
<path d="M4114 439 c-6 -10 12 -29 29 -29 9 0 9 4 1 24 -7 19 -20 21 -30 5z"/>
<path d="M4170 340 c0 -5 7 -10 15 -10 8 0 15 5 15 10 0 6 -7 10 -15 10 -8 0
-15 -4 -15 -10z"/>
<path d="M4355 269 c-4 -6 -3 -15 3 -21 6 -6 11 -4 15 6 7 18 -9 31 -18 15z"/>
<path d="M4213 247 c1 -13 -4 -22 -12 -22 -8 0 -16 -6 -19 -14 -3 -10 0 -12
13 -7 10 4 28 0 42 -9 16 -11 29 -13 40 -7 12 7 8 11 -21 16 -39 8 -40 9 -26
36 7 13 6 19 -5 24 -10 4 -14 -1 -12 -17z"/>
<path d="M4420 210 c0 -5 5 -10 11 -10 5 0 7 5 4 10 -3 6 -8 10 -11 10 -2 0
-4 -4 -4 -10z"/>
<path d="M4200 190 c0 -5 5 -10 11 -10 5 0 7 5 4 10 -3 6 -8 10 -11 10 -2 0
-4 -4 -4 -10z"/>
<path d="M4316 184 c-3 -9 2 -14 14 -14 26 0 34 17 11 23 -12 3 -22 -1 -25 -9z"/>
<path d="M4408 183 c7 -3 16 -2 19 1 4 3 -2 6 -13 5 -11 0 -14 -3 -6 -6z"/>
<path d="M4547 184 c-4 -4 2 -14 13 -21 11 -8 17 -19 14 -25 -4 -7 -2 -8 4 -4
8 5 12 0 12 -13 0 -11 10 -26 23 -32 18 -9 20 -9 10 2 -7 7 -13 20 -13 29 0
19 -53 73 -63 64z"/>
<path d="M4120 160 c19 -13 30 -13 30 0 0 6 -10 10 -22 10 -19 0 -20 -2 -8
-10z"/>
<path d="M4430 151 c0 -5 7 -11 15 -15 8 -3 15 -1 15 3 0 5 -7 11 -15 15 -8 3
-15 1 -15 -3z"/>
<path d="M4160 136 c0 -10 45 -81 55 -88 5 -4 13 0 17 10 6 16 7 15 7 -1 1
-13 7 -17 24 -15 15 2 21 9 20 23 -1 11 0 14 3 7 7 -16 24 -6 24 15 0 10 -6
13 -16 9 -12 -4 -14 -1 -9 13 3 11 0 23 -7 27 -7 4 -10 4 -7 0 4 -4 -4 -19
-17 -33 -23 -25 -25 -25 -49 -9 -14 9 -25 23 -25 31 0 8 -4 15 -10 15 -5 0
-10 -2 -10 -4z"/>
<path d="M4530 129 c0 -5 5 -7 10 -4 6 3 10 8 10 11 0 2 -4 4 -10 4 -5 0 -10
-5 -10 -11z"/>
<path d="M4395 120 c3 -5 8 -10 11 -10 2 0 4 5 4 10 0 6 -5 10 -11 10 -5 0 -7
-4 -4 -10z"/>
<path d="M4487 124 c-9 -9 4 -35 14 -28 5 3 9 12 9 20 0 14 -12 19 -23 8z"/>
<path d="M4065 90 c-3 -5 -1 -10 4 -10 6 0 11 5 11 10 0 6 -2 10 -4 10 -3 0
-8 -4 -11 -10z"/>
<path d="M4040 76 c0 -9 5 -16 10 -16 6 0 10 4 10 9 0 6 -4 13 -10 16 -5 3
-10 -1 -10 -9z"/>
<path d="M4170 70 c0 -5 5 -10 11 -10 5 0 7 5 4 10 -3 6 -8 10 -11 10 -2 0 -4
-4 -4 -10z"/>
<path d="M4073 63 c4 -3 2 -12 -4 -20 -8 -9 -8 -13 -1 -13 6 0 16 9 22 20 9
16 8 20 -6 20 -10 0 -14 -3 -11 -7z"/>
<path d="M4312 45 c4 -5 3 -14 -3 -22 -9 -11 1 -13 56 -13 49 0 65 3 62 13 -2
7 -19 11 -42 10 -20 -2 -47 2 -58 9 -12 6 -19 7 -15 3z"/>
<path d="M4160 30 c0 -5 5 -10 10 -10 6 0 10 5 10 10 0 6 -4 10 -10 10 -5 0
-10 -4 -10 -10z"/>
<path d="M4440 26 c0 -10 9 -16 21 -16 24 0 21 23 -4 28 -10 2 -17 -3 -17 -12z"/>
<path d="M4240 26 c0 -2 9 -6 20 -9 11 -3 18 -1 14 4 -5 9 -34 13 -34 5z"/>
</g>
</svg>
